<?xml version="1.0" encoding="UTF-8" standalone="no"?>
<svg
   version="1.1"
   viewBox="0 0 316.228 450"
   width="316.228pt"
   height="450pt"
   id="svg278"
   sodipodi:docname="dasho2.svg"
   inkscape:version="1.1 (c68e22c387, 2021-05-23)"
   xmlns:inkscape="http://www.inkscape.org/namespaces/inkscape"
   xmlns:sodipodi="http://sodipodi.sourceforge.net/DTD/sodipodi-0.dtd"
   xmlns:xlink="http://www.w3.org/1999/xlink"
   xmlns="http://www.w3.org/2000/svg"
   xmlns:svg="http://www.w3.org/2000/svg">
  <sodipodi:namedview
     id="namedview280"
     pagecolor="#505050"
     bordercolor="#eeeeee"
     borderopacity="1"
     inkscape:pageshadow="0"
     inkscape:pageopacity="0"
     inkscape:pagecheckerboard="0"
     inkscape:document-units="pt"
     showgrid="false"
     inkscape:zoom="1.0533333"
     inkscape:cx="210.28482"
     inkscape:cy="254.43039"
     inkscape:window-width="1368"
     inkscape:window-height="860"
     inkscape:window-x="-6"
     inkscape:window-y="-6"
     inkscape:window-maximized="1"
     inkscape:current-layer="g276" />
  <defs
     id="defs56">
    <path
       d="M 0,0 H 450 V 450 H 0 Z m 261.82,59.08 c -2.52,1.08 -4.61,2.29 -6.72,4.05 -2.72,2.3 -5.85,2.03 -9.17,2.64 -2.72,-1.67 -5.5,-2.85 -8.75,-2.31 -5.59,0.69 -9.58,4.63 -12.69,9.01 -2.5,3.69 -4.85,7.72 -6.07,12.03 0.07,0.99 0.19,1.98 0.28,2.97 l -0.71,0.82 c -1.75,8.14 -2.5,16.38 -1.23,24.65 l -0.97,1.62 c -14.66,0.7 -29.26,2.1 -43.78,4.24 -21.8,3.45 -42.54,12.44 -59.28,26.93 -18.27,15.69 -30.91,36.52 -39,59.03 -8.13,23.26 -10.37,48.94 -5.39,73.12 3.49,16.89 10.6,32.96 21.08,46.67 12.65,16.69 29.01,30.6 47.11,41.07 19.99,11.47 41.63,19.72 64.29,24.02 11.37,2.33 22.71,2.84 34.22,3.99 9.74,0.45 19.53,0.18 29.27,-0.18 9.12,-0.25 18.29,-1.11 27.22,-3.07 15.63,-2.34 30.99,-6.22 45.58,-12.35 15.02,-6.11 29.78,-16.56 38.34,-30.59 7.67,-12.29 10.2,-27.13 8.86,-41.43 -1.4,-16.91 -7.63,-33.32 -12.94,-49.32 -3.35,-9.92 -5.91,-20.04 -8.96,-30.05 -5.71,-19.12 -12.59,-39.06 -22.72,-56.32 -8.12,-13.91 -18.47,-26.25 -31.85,-35.37 0.87,-3.58 1.68,-7.16 2.4,-10.77 l 0.34,-1.72 c 1.76,0.03 3.7,0.1 5.38,-0.44 2.46,-0.81 4.42,-3.19 6.51,-4.3 1.77,-0.85 3.77,-0.76 4.78,-2.47 5.08,-7.32 10.79,-16.29 11.34,-25.38 -2.61,2.67 -5.23,4.65 -8.43,6.54 -6.6,2.66 -13.16,2.11 -19.81,0.01 3.9,-1.34 7.5,-2.59 10.45,-5.62 2.01,-1.97 3,-4.4 4.06,-6.94 -6.77,2.17 -11.44,1.48 -17.45,-2.12 -0.76,-3.95 -2.3,-7.43 -4.08,-11.01 l 1.49,-0.81 c -0.75,-0.12 -1.5,-0.25 -2.25,-0.37 -1.07,-1.82 -2.27,-3.36 -3.92,-4.69 -9.42,-8.73 -25.24,-11.54 -36.83,-5.78 z"
       id="p0" />
    <path
       d="m 298.65,64.86 c -4.61,-2.19 -8.37,-5.2 -13.48,-6.36 -8.17,-1.63 -15.57,0.18 -23.35,0.58 11.59,-5.76 27.41,-2.95 36.83,5.78 z"
       id="p1" />
    <path
       d="m 285.17,58.5 c 5.11,1.16 8.87,4.17 13.48,6.36 1.65,1.33 2.85,2.87 3.92,4.69 0.75,0.12 1.5,0.25 2.25,0.37 l -1.49,0.81 c 1.78,3.58 3.32,7.06 4.08,11.01 6.01,3.6 10.68,4.29 17.45,2.12 -1.06,2.54 -2.05,4.97 -4.06,6.94 -2.95,3.03 -6.55,4.28 -10.45,5.62 -3.64,0.21 -7.48,0.58 -11.1,0.2 -3.5,-0.44 -6.98,-1.81 -10.44,-2.6 8.83,7.64 22.54,11.57 33.8,7.53 3.04,-1.21 5.95,-2.01 7.55,-5.14 3.2,-1.89 5.82,-3.87 8.43,-6.54 -0.55,9.09 -6.26,18.06 -11.34,25.38 -1.01,1.71 -3.01,1.62 -4.78,2.47 -2.09,1.11 -4.05,3.49 -6.51,4.3 -1.68,0.54 -3.62,0.47 -5.38,0.44 -10.86,-2.01 -20.34,-9.74 -28.82,-16.35 2.2,3.29 5.32,5.61 7.75,8.7 -3.18,0.06 -6.3,-0.14 -9.31,-1.22 -7.53,-2.52 -14.67,-7.07 -21.01,-11.79 -2.38,-1.73 -4.22,-3.65 -6.84,-4.97 l -0.5,1.58 -0.21,0.69 c -0.32,-1 -0.66,-1.99 -1.02,-2.98 -1.76,4.25 -3.58,8.37 -6.49,11.98 -3.01,4.08 -6.89,7.04 -10.87,10.1 0.53,0.9 1.06,1.8 1.59,2.7 l -1.94,-0.03 c -2.76,0.08 -6.45,-0.74 -8.62,1.4 -2.77,3.02 -3.2,8.01 -2.41,11.88 -3.61,-6.04 -4.08,-14.35 -5.12,-21.21 -1.27,-8.27 -0.52,-16.51 1.23,-24.65 l 0.71,-0.82 c -0.09,-0.99 -0.21,-1.98 -0.28,-2.97 l 0.67,1.99 c 3.21,-5.77 5.4,-11.42 10.73,-15.7 3.63,-3.14 8,-4.41 12.65,-5.17 0.67,0.21 1.34,0.41 2.01,0.6 l 1.45,-0.45 c 3.32,-0.61 6.45,-0.34 9.17,-2.64 2.11,-1.76 4.2,-2.97 6.72,-4.05 7.78,-0.4 15.18,-2.21 23.35,-0.58 z"
       id="p2" />
    <path
       d="m 237.18,63.46 c 3.25,-0.54 6.03,0.64 8.75,2.31 l -1.45,0.45 c -0.67,-0.19 -1.34,-0.39 -2.01,-0.6 -3.3,-1.08 -6.9,-0.98 -9.91,0.87 -4.85,2.8 -8.44,8.24 -11.08,13.05 -1.29,2.21 -1.94,4.4 -2.39,6.95 l -0.67,-1.99 c 1.22,-4.31 3.57,-8.34 6.07,-12.03 3.11,-4.38 7.1,-8.32 12.69,-9.01 z"
       id="p3" />
    <path
       d="m 242.47,65.62 c -4.65,0.76 -9.02,2.03 -12.65,5.17 -5.33,4.28 -7.52,9.93 -10.73,15.7 0.45,-2.55 1.1,-4.74 2.39,-6.95 2.64,-4.81 6.23,-10.25 11.08,-13.05 3.01,-1.85 6.61,-1.95 9.91,-0.87 z"
       id="p4" />
    <path
       d="m 288.81,94.02 c 3.46,0.79 6.94,2.16 10.44,2.6 3.62,0.38 7.46,0.01 11.1,-0.2 6.65,2.1 13.21,2.65 19.81,-0.01 -1.6,3.13 -4.51,3.93 -7.55,5.14 -11.26,4.04 -24.97,0.11 -33.8,-7.53 z"
       id="p5" />
    <path
       d="m 250.62,96.12 c 0.36,0.99 0.7,1.98 1.02,2.98 -2.82,8.45 -5.77,17.47 -10.86,24.86 -1.83,-1.31 -3.79,-2.35 -5.93,-3.06 -0.53,-0.9 -1.06,-1.8 -1.59,-2.7 3.98,-3.06 7.86,-6.02 10.87,-10.1 2.91,-3.61 4.73,-7.73 6.49,-11.98 z"
       id="p6" />
    <path
       d="m 252.35,96.83 c 2.62,1.32 4.46,3.24 6.84,4.97 6.34,4.72 13.48,9.27 21.01,11.79 3.01,1.08 6.13,1.28 9.31,1.22 -2.43,-3.09 -5.55,-5.41 -7.75,-8.7 8.48,6.61 17.96,14.34 28.82,16.35 l -0.34,1.72 c -2.76,-0.91 -5.58,-1.62 -8.39,-2.37 -2.45,-1.38 -4.59,-3.44 -7.59,-2.93 -6.55,0.65 -11.07,-0.27 -16.88,-3.18 0,-0.92 -0.04,-1.84 -0.09,-2.76 -2.57,-1.35 -5.78,-1.73 -8.63,-2.17 -5.16,-4.75 -11.88,-7.17 -16.81,-12.36 z"
       id="p7" />
    <path
       d="m 251.64,99.1 0.21,-0.69 c 4.93,5.19 11.65,7.61 16.81,12.36 -5.91,0.29 -10.49,1.76 -15.5,4.86 3.28,-0.76 6.43,-1.57 9.84,-1.51 4.9,-0.09 9.49,1.53 14.38,1.58 5.81,2.91 10.33,3.83 16.88,3.18 -0.39,3.12 2.66,3.69 4.68,5.21 3.09,1.59 5.03,4.48 8.01,6.15 -0.38,-3.68 -2.72,-5.87 -5.1,-8.43 2.81,0.75 5.63,1.46 8.39,2.37 -0.72,3.61 -1.53,7.19 -2.4,10.77 -0.76,3.32 -1.68,6.39 -2.95,9.56 -5.56,-4.96 -11.77,-9.92 -18.75,-12.71 -3.32,-1.37 -6.61,-1.41 -10.14,-1.69 -9.37,-0.66 -18.71,-0.96 -28.06,0.12 -2.76,-0.98 -4.83,-4.43 -7.16,-6.27 5.09,-7.39 8.04,-16.41 10.86,-24.86 z m 8.35,22 0.39,0.56 c 1.47,0.16 2.95,0.29 4.42,0.37 -0.49,1.02 -0.99,2.04 -1.49,3.05 1.05,1.47 1.44,2.97 3.59,2.76 2.07,-0.35 2.06,-1.85 2.66,-3.5 0.77,0.05 1.55,0.09 2.32,0.14 -3.96,-2.73 -7.13,-3.35 -11.89,-3.38 z m 31.9,9.46 c 0.94,0.18 1.89,0.36 2.83,0.53 -0.28,2.14 -0.8,3.68 1.35,4.91 2.66,1.11 3.97,-1.17 4.15,-3.56 l 2.37,0.08 c -3.69,-2.39 -6.39,-2.54 -10.7,-1.96 z"
       id="p8" />
    <path
       d="m 268.66,110.77 c 2.85,0.44 6.06,0.82 8.63,2.17 0.05,0.92 0.09,1.84 0.09,2.76 -4.89,-0.05 -9.48,-1.67 -14.38,-1.58 -3.41,-0.06 -6.56,0.75 -9.84,1.51 5.01,-3.1 9.59,-4.57 15.5,-4.86 z"
       id="p9" />
    <path
       d="m 216.76,112.94 c 1.04,6.86 1.51,15.17 5.12,21.21 2.8,4.84 7.06,8.24 12.04,10.64 0.46,0.84 0.95,1.67 1.46,2.47 -0.57,1.59 -1.13,3.19 -1.72,4.78 -2.68,6.93 -5.96,14.13 -10.57,20.02 -1.99,2.55 -4.13,4.44 -6.95,6.04 l -0.6,-0.14 c -2.15,-0.66 -4.31,-0.69 -6.54,-0.57 -13.56,0.61 -26.44,2.75 -39.99,3.84 -10.48,1.1 -22.2,4.2 -29.56,12.23 -9.67,10.83 -13.53,25.31 -14.09,39.54 -1.07,24.93 6.21,50.6 10.53,75 3.44,19.21 2.37,38.3 0.64,57.62 -18.1,-10.47 -34.46,-24.38 -47.11,-41.07 -10.48,-13.71 -17.59,-29.78 -21.08,-46.67 -4.98,-24.18 -2.74,-49.86 5.39,-73.12 8.09,-22.51 20.73,-43.34 39,-59.03 16.74,-14.49 37.48,-23.48 59.28,-26.93 14.52,-2.14 29.12,-3.54 43.78,-4.24 z"
       id="p10" />
    <path
       d="m 294.26,118.88 c 3,-0.51 5.14,1.55 7.59,2.93 2.38,2.56 4.72,4.75 5.1,8.43 -2.98,-1.67 -4.92,-4.56 -8.01,-6.15 -2.02,-1.52 -5.07,-2.09 -4.68,-5.21 z"
       id="p11" />
    <path
       d="m 232.91,120.87 c 3.9,4.12 9.53,7.08 12.38,11.82 1.27,1.78 0.33,3.43 -0.36,5.2 -1.37,2.94 -2.98,5.96 -5.2,8.35 -2.14,0.21 -3.88,-0.67 -5.81,-1.45 -4.98,-2.4 -9.24,-5.8 -12.04,-10.64 -0.79,-3.87 -0.36,-8.86 2.41,-11.88 2.17,-2.14 5.86,-1.32 8.62,-1.4 z m -5.55,3.49 c -5.2,4.44 -0.9,15.2 6.05,14.14 1.43,-2.54 2.04,-6.59 1.46,-9.41 -1.06,-2.37 -4.7,-5.83 -7.51,-4.73 z"
       id="p12" />
    <path
       d="m 232.91,120.87 1.94,0.03 c 2.14,0.71 4.1,1.75 5.93,3.06 2.33,1.84 4.4,5.29 7.16,6.27 9.35,-1.08 18.69,-0.78 28.06,-0.12 3.53,0.28 6.82,0.32 10.14,1.69 6.98,2.79 13.19,7.75 18.75,12.71 -1.28,6.31 -2.91,12.15 -7.22,17.13 -5.43,6.08 -12.49,10.61 -20.32,12.92 -5.73,-0.49 -11.24,-0.55 -16.32,-3.6 -9.23,-5.43 -16.67,-14.62 -22.56,-23.42 0.42,-0.43 0.84,-0.87 1.26,-1.3 2.22,-2.39 3.83,-5.41 5.2,-8.35 0.69,-1.77 1.63,-3.42 0.36,-5.2 -2.85,-4.74 -8.48,-7.7 -12.38,-11.82 z"
       id="p13" />
    <path
       d="m 259.99,121.1 c 4.76,0.03 7.93,0.65 11.89,3.38 -0.77,-0.05 -1.55,-0.09 -2.32,-0.14 -0.6,1.65 -0.59,3.15 -2.66,3.5 -2.15,0.21 -2.54,-1.29 -3.59,-2.76 0.5,-1.01 1,-2.03 1.49,-3.05 -1.47,-0.08 -2.95,-0.21 -4.42,-0.37 z"
       id="p14" />
    <path
       d="m 227.36,124.36 c 2.81,-1.1 6.45,2.36 7.51,4.73 0.58,2.82 -0.03,6.87 -1.46,9.41 -6.95,1.06 -11.25,-9.7 -6.05,-14.14 z"
       id="p15" />
    <path
       d="m 291.89,130.56 c 4.31,-0.58 7.01,-0.43 10.7,1.96 l -2.37,-0.08 c -0.18,2.39 -1.49,4.67 -4.15,3.56 -2.15,-1.23 -1.63,-2.77 -1.35,-4.91 -0.94,-0.17 -1.89,-0.35 -2.83,-0.53 z"
       id="p16" />
    <path
       d="m 307.84,134.95 c 13.38,9.12 23.73,21.46 31.85,35.37 10.13,17.26 17.01,37.2 22.72,56.32 3.05,10.01 5.61,20.13 8.96,30.05 5.31,16 11.54,32.41 12.94,49.32 1.34,14.3 -1.19,29.14 -8.86,41.43 -8.56,14.03 -23.32,24.48 -38.34,30.59 2.52,-13.9 4.35,-28.02 4.78,-42.15 0.03,-0.76 0.07,-1.53 0.1,-2.29 1.86,-1 3.53,-1.98 4.78,-3.73 -0.35,-0.89 -0.72,-1.79 -1.15,-2.65 -0.67,-1.21 -1.36,-2.42 -2.07,-3.61 5.74,-7.59 11.69,-15.02 17.32,-22.7 0.66,-1.15 2.08,-2.25 0.8,-3.53 -3.97,-4.88 -10.96,-7.8 -16.49,-10.56 -0.32,-0.96 -0.62,-1.92 -0.91,-2.89 -0.21,-1.03 -0.41,-2.06 -0.62,-3.09 -0.25,-1.3 -0.5,-2.6 -0.75,-3.9 -0.72,-3.7 -1.53,-7.37 -2.29,-11.06 -0.3,-1.45 -0.59,-2.9 -0.9,-4.34 -2.67,-12.15 -5.44,-24.26 -8.38,-36.34 -1.33,-7.22 -6.81,-13.64 -12.13,-18.39 -10.82,-5.37 -22.51,-9.4 -34.29,-12.1 -3.66,-0.85 -7.35,-1.44 -11.09,-1.85 -1.43,-5.5 -1.66,-11.07 -1.08,-16.7 1.57,-0.45 3.09,-1.01 4.61,-1.59 7.83,-2.31 14.89,-6.84 20.32,-12.92 4.31,-4.98 5.94,-10.82 7.22,-17.13 1.27,-3.17 2.19,-6.24 2.95,-9.56 z"
       id="p17" />
    <path
       d="m 233.92,144.79 c 1.93,0.78 3.67,1.66 5.81,1.45 -0.42,0.43 -0.84,0.87 -1.26,1.3 5.89,8.8 13.33,17.99 22.56,23.42 5.08,3.05 10.59,3.11 16.32,3.6 -1.52,0.58 -3.04,1.14 -4.61,1.59 -4.41,0.13 -9.2,0.47 -13.21,-1.67 -7.46,-3.74 -13.35,-10.28 -17.76,-17.24 -2.26,-3.41 -3.35,-7.1 -6.39,-9.98 -0.51,-0.8 -1,-1.63 -1.46,-2.47 z"
       id="p18" />
    <path
       d="m 235.38,147.26 c 3.04,2.88 4.13,6.57 6.39,9.98 4.41,6.96 10.3,13.5 17.76,17.24 4.01,2.14 8.8,1.8 13.21,1.67 -0.58,5.63 -0.35,11.2 1.08,16.7 -0.86,0.96 -1.71,1.9 -2.61,2.82 -7.06,-5.46 -13.61,-11.67 -19.77,-18.12 -6.96,-7.5 -14.04,-15.88 -17.78,-25.51 0.59,-1.59 1.15,-3.19 1.72,-4.78 z"
       id="p19" />
    <path
       d="m 233.66,152.04 c 3.74,9.63 10.82,18.01 17.78,25.51 6.16,6.45 12.71,12.66 19.77,18.12 -6.63,5.92 -15.6,7.71 -24.23,6.23 -13.38,-1.9 -24.8,-12.08 -30.84,-23.8 2.82,-1.6 4.96,-3.49 6.95,-6.04 4.61,-5.89 7.89,-13.09 10.57,-20.02 z"
       id="p20" />
    <path
       d="m 209,177.39 c 2.23,-0.12 4.39,-0.09 6.54,0.57 -2.96,-0.13 -5.92,-0.23 -8.88,-0.42 2.03,3.96 3.55,8.18 5.75,12.04 4.78,7.87 10.66,14.85 19.14,18.86 17.81,8.43 42.26,3.03 53.36,-13.74 11.78,2.7 23.47,6.73 34.29,12.1 5.32,4.75 10.8,11.17 12.13,18.39 2.94,12.08 5.71,24.19 8.38,36.34 -5.28,-0.27 -10.39,-1.27 -15.71,-0.75 -10.86,0.78 -22,1.91 -32.49,4.9 -1.65,-7.12 -1.69,-15.01 -2.46,-22.05 l -0.93,1.43 c -2.15,6.92 -2.58,14.91 -5.89,21.4 -1.23,-0.03 -2.46,-0.06 -3.69,-0.1 -5.99,-1.16 -12.49,-0.39 -18.55,-0.04 -14.95,1.01 -30.19,3.04 -45,-0.28 -8.51,-1.99 -13.43,-9.89 -19.61,-15.42 -4.78,-4.24 -8.84,-9.24 -13.62,-13.45 -0.59,-0.47 -1.2,-0.92 -1.82,-1.36 0.91,2.82 2.28,5.41 3.76,7.97 -13.12,6.92 -25.11,16.09 -33.25,28.68 -4.51,6.81 -7.58,14.44 -9.48,22.37 0.74,1.19 1.47,2.37 2.19,3.57 0.25,1.43 0.48,2.87 0.74,4.3 0.93,7.21 3.98,14.28 6.19,21.22 3.55,9.57 6.02,19.59 10.03,28.96 2.53,5.88 6.02,11.08 11.67,14.35 6.47,3.74 14.86,4.69 22.21,4.8 13.21,0.22 24.93,-2.9 38,-4.04 5.64,-0.49 11.34,-1.31 17,-1.27 3.37,0.08 6.69,0.63 9.22,3.05 3.81,3.9 5.37,9.55 4.28,14.89 -0.17,3.07 -1.82,5.84 0.98,8.14 l 0.83,0.65 c -9.74,0.36 -19.53,0.63 -29.27,0.18 -11.51,-1.15 -22.85,-1.66 -34.22,-3.99 -22.66,-4.3 -44.3,-12.55 -64.29,-24.02 1.73,-19.32 2.8,-38.41 -0.64,-57.62 -4.32,-24.4 -11.6,-50.07 -10.53,-75 0.56,-14.23 4.42,-28.71 14.09,-39.54 7.36,-8.03 19.08,-11.13 29.56,-12.23 13.55,-1.09 26.43,-3.23 39.99,-3.84 z m 81.34,32.29 c -3.5,1.63 -6.16,4.18 -9.41,6.2 -9.01,5.69 -19.19,9.32 -29.93,9.44 -9.44,0.27 -18.83,-2.23 -26.48,-7.85 -9.34,-6.74 -15.63,-16.81 -21.42,-26.55 -2.31,-3.69 -4.29,-7.79 -7.09,-11.04 1.48,4.41 4.29,8.5 6.48,12.63 6.06,10.69 13.01,21.71 23.66,28.34 10.19,6.39 22.25,7.63 33.91,5.45 10.3,-2.08 19.51,-7.03 27.64,-13.58 1.05,-0.87 1.83,-1.95 2.64,-3.04 z m 7.84,1.07 c -3.8,1.98 -6.52,5 -10.08,7.39 -10.73,7.53 -23.14,13.36 -36.07,15.81 -8.5,1.68 -17.19,-0.11 -24.68,-4.31 -10.42,-5.75 -19.28,-15.09 -26.65,-24.31 -2.67,-3.2 -4.67,-7.04 -7.82,-9.6 1.46,3.86 3.97,6.69 6.38,10 8.17,10.81 18.79,22.13 31.4,27.64 8.01,3.68 16.88,3.83 25.34,1.74 14.54,-3.74 27.92,-11.06 39.25,-20.85 1.15,-1.03 2.04,-2.25 2.93,-3.51 z m -113.27,-9.96 c 0.7,4 2.65,7.28 4.44,10.85 5.47,10.56 12.68,20.63 22.64,27.37 9.66,6.77 21.73,9.22 33.35,7.5 14.63,-1.88 27.6,-9.19 39.2,-17.94 3.16,-2.53 6.57,-4.49 8.73,-7.81 -3.67,1.44 -6.1,4.02 -9.25,6.27 -9.99,7.39 -21.09,13.76 -33.3,16.55 -11.31,2.58 -23.33,1.93 -33.69,-3.62 -11.4,-6.06 -19.87,-16.85 -25.99,-27.99 -2.21,-3.83 -3.44,-7.7 -6.13,-11.18 z"
       id="p21" />
    <path
       d="m 206.66,177.54 c 2.96,0.19 5.92,0.29 8.88,0.42 l 0.6,0.14 c 6.04,11.72 17.46,21.9 30.84,23.8 8.63,1.48 17.6,-0.31 24.23,-6.23 0.9,-0.92 1.75,-1.86 2.61,-2.82 3.74,0.41 7.43,1 11.09,1.85 -11.1,16.77 -35.55,22.17 -53.36,13.74 -8.48,-4.01 -14.36,-10.99 -19.14,-18.86 -2.2,-3.86 -3.72,-8.08 -5.75,-12.04 z"
       id="p22" />
    <path
       d="m 196.01,179.88 c 2.8,3.25 4.78,7.35 7.09,11.04 5.79,9.74 12.08,19.81 21.42,26.55 7.65,5.62 17.04,8.12 26.48,7.85 10.74,-0.12 20.92,-3.75 29.93,-9.44 3.25,-2.02 5.91,-4.57 9.41,-6.2 -0.81,1.09 -1.59,2.17 -2.64,3.04 -8.13,6.55 -17.34,11.5 -27.64,13.58 -11.66,2.18 -23.72,0.94 -33.91,-5.45 -10.65,-6.63 -17.6,-17.65 -23.66,-28.34 -2.19,-4.13 -5,-8.22 -6.48,-12.63 z"
       id="p23" />
    <path
       d="m 192.88,195.73 c 3.15,2.56 5.15,6.4 7.82,9.6 7.37,9.22 16.23,18.56 26.65,24.31 7.49,4.2 16.18,5.99 24.68,4.31 12.93,-2.45 25.34,-8.28 36.07,-15.81 3.56,-2.39 6.28,-5.41 10.08,-7.39 -0.89,1.26 -1.78,2.48 -2.93,3.51 -11.33,9.79 -24.71,17.11 -39.25,20.85 -8.46,2.09 -17.33,1.94 -25.34,-1.74 -12.61,-5.51 -23.23,-16.83 -31.4,-27.64 -2.41,-3.31 -4.92,-6.14 -6.38,-10 z"
       id="p24" />
    <path
       d="m 184.91,200.79 c 2.69,3.48 3.92,7.35 6.13,11.18 6.12,11.14 14.59,21.93 25.99,27.99 10.36,5.55 22.38,6.2 33.69,3.62 12.21,-2.79 23.31,-9.16 33.3,-16.55 3.15,-2.25 5.58,-4.83 9.25,-6.27 -2.16,3.32 -5.57,5.28 -8.73,7.81 -11.6,8.75 -24.57,16.06 -39.2,17.94 -11.62,1.72 -23.69,-0.73 -33.35,-7.5 -9.96,-6.74 -17.17,-16.81 -22.64,-27.37 -1.79,-3.57 -3.74,-6.85 -4.44,-10.85 z"
       id="p25" />
    <path
       d="m 179.94,235.81 c 0.62,0.44 1.23,0.89 1.82,1.36 5.92,11.12 13.21,21.53 19.77,32.29 2.79,4.2 5.18,8.75 8.27,12.73 0.92,1.47 3.45,0.52 4.86,0.4 12.32,-2.79 24.84,-4.91 37.41,-6.18 7.85,-0.42 15.47,-0.09 23.1,-2.42 0.3,1.51 0.07,2.72 1.78,3.38 2.12,0.13 4.29,-0.05 6.42,-0.18 0.23,1.05 0.46,2.11 0.69,3.16 -0.25,-0.87 -0.5,-1.74 -0.75,-2.61 -3.14,0.23 -6.27,0.44 -9.41,0.69 -16.86,1.5 -33.91,4.32 -50.13,9.25 -5.57,1.74 -11.02,3.54 -16.27,6.11 -1.47,-3.02 -2.72,-6.1 -4.38,-9.03 -0.66,-1.19 -1.34,-2.38 -2.06,-3.54 0.69,-0.38 1.37,-0.76 2.05,-1.16 -2.19,-4.24 -4.49,-8.41 -6.71,-12.63 -1.41,-2.6 -2.82,-5.19 -4.24,-7.78 -2.05,-3.68 -3.91,-7.44 -5.84,-11.18 -0.86,-1.57 -1.73,-3.13 -2.62,-4.69 -1.48,-2.56 -2.85,-5.15 -3.76,-7.97 z"
       id="p26" />
    <path
       d="m 181.76,237.17 c 4.78,4.21 8.84,9.21 13.62,13.45 6.18,5.53 11.1,13.43 19.61,15.42 14.81,3.32 30.05,1.29 45,0.28 6.06,-0.35 12.56,-1.12 18.55,0.04 l 0.97,0.18 c -1.27,0.38 -3.62,0.3 -4.31,1.65 -0.47,1.84 -0.11,3.92 -0.03,5.8 -7.63,2.33 -15.25,2 -23.1,2.42 -12.57,1.27 -25.09,3.39 -37.41,6.18 -1.41,0.12 -3.94,1.07 -4.86,-0.4 -3.09,-3.98 -5.48,-8.53 -8.27,-12.73 -6.56,-10.76 -13.85,-21.17 -19.77,-32.29 z"
       id="p27" />
    <path
       d="m 183.7,243.78 c 0.89,1.56 1.76,3.12 2.62,4.69 -4.31,4.96 -10.25,8.28 -14.95,12.89 -8.3,7.88 -14.87,17.74 -20.18,27.83 -2.28,4.13 -3.06,8.66 -5.69,12.57 -0.79,-1.11 -1.57,-2.23 -2.34,-3.36 -0.72,-1.2 -1.45,-2.38 -2.19,-3.57 1.9,-7.93 4.97,-15.56 9.48,-22.37 8.14,-12.59 20.13,-21.76 33.25,-28.68 z"
       id="p28" />
    <path
       d="m 289.05,243.63 c 0.77,7.04 0.81,14.93 2.46,22.05 l 0.29,0.92 c -4.1,-0.1 -8.21,0.23 -12.29,-0.06 l -0.97,-0.18 c 1.23,0.04 2.46,0.07 3.69,0.1 3.31,-6.49 3.74,-14.48 5.89,-21.4 z"
       id="p29" />
    <path
       d="m 186.32,248.47 c 1.93,3.74 3.79,7.5 5.84,11.18 -13.68,4.04 -22.36,13.87 -30.58,24.91 -5.31,7.19 -9.66,14.91 -11.67,23.7 -1.41,-2.2 -2.92,-4.35 -4.41,-6.5 2.63,-3.91 3.41,-8.44 5.69,-12.57 5.31,-10.09 11.88,-19.95 20.18,-27.83 4.7,-4.61 10.64,-7.93 14.95,-12.89 z"
       id="p30" />
    <path
       d="m 192.16,259.65 c 1.42,2.59 2.83,5.18 4.24,7.78 -4.37,3.01 -8.98,5.52 -13.14,8.82 -10.15,7.82 -18.47,17.73 -23.38,29.64 -1.76,4.16 -1.97,8.61 -3.53,12.85 -2.16,-3.48 -4.3,-6.98 -6.44,-10.48 2.01,-8.79 6.36,-16.51 11.67,-23.7 8.22,-11.04 16.9,-20.87 30.58,-24.91 z"
       id="p31" />
    <path
       d="m 324,260.78 c 5.32,-0.52 10.43,0.48 15.71,0.75 0.31,1.44 0.6,2.89 0.9,4.34 -12.18,1.75 -24.4,1.79 -36.66,1.46 -4.05,-0.36 -8.08,-0.72 -12.15,-0.73 l -0.29,-0.92 c 10.49,-2.99 21.63,-4.12 32.49,-4.9 z"
       id="p32" />
    <path
       d="m 340.61,265.87 c 0.76,3.69 1.57,7.36 2.29,11.06 -8.46,-1.11 -18.05,-0.97 -26.46,0.49 -3.45,-0.07 -6.89,-0.11 -10.34,-0.37 1.8,-3.54 0.06,-6.88 -2.15,-9.72 12.26,0.33 24.48,0.29 36.66,-1.46 z"
       id="p33" />
    <path
       d="m 196.4,267.43 c 2.22,4.22 4.52,8.39 6.71,12.63 -0.68,0.4 -1.36,0.78 -2.05,1.16 -4.94,2.11 -9.64,4.6 -13.78,8.05 -10.18,8.24 -16.48,20.57 -19.28,33.2 -0.94,3.95 -1.63,7.93 -2.25,11.94 -3.62,-4.89 -6.16,-10.51 -9.4,-15.67 1.56,-4.24 1.77,-8.69 3.53,-12.85 4.91,-11.91 13.23,-21.82 23.38,-29.64 4.16,-3.3 8.77,-5.81 13.14,-8.82 z"
       id="p34" />
    <path
       d="m 279.51,266.54 c 4.08,0.29 8.19,-0.04 12.29,0.06 4.07,0.01 8.1,0.37 12.15,0.73 2.21,2.84 3.95,6.18 2.15,9.72 l -1.93,-0.18 c -7.13,-1.79 -13.68,-0.15 -20.8,0.32 -2.13,0.13 -4.3,0.31 -6.42,0.18 -1.71,-0.66 -1.48,-1.87 -1.78,-3.38 -0.08,-1.88 -0.44,-3.96 0.03,-5.8 0.69,-1.35 3.04,-1.27 4.31,-1.65 z"
       id="p35" />
    <path
       d="m 304.17,276.87 c -1.55,-0.07 -3.09,-0.13 -4.64,-0.17 l 0.81,2.79 c -4.98,1.69 -11.04,0.65 -16.28,0.86 -0.23,-1.05 -0.46,-2.11 -0.69,-3.16 7.12,-0.47 13.67,-2.11 20.8,-0.32 z"
       id="p36" />
    <path
       d="m 342.9,276.93 c 0.25,1.3 0.5,2.6 0.75,3.9 -3.05,0.4 -6.05,0.92 -9.04,1.68 -6,-2.02 -11.04,-4.58 -17.24,-5 l -0.93,-0.09 c 8.41,-1.46 18,-1.6 26.46,-0.49 z"
       id="p37" />
    <path
       d="m 299.53,276.7 c 1.55,0.04 3.09,0.1 4.64,0.17 l 1.93,0.18 c 3.45,0.26 6.89,0.3 10.34,0.37 l 0.93,0.09 c -4.36,0.26 -8.69,-0.07 -13.02,0.43 0.76,7.99 0.15,17.46 -4.01,24.51 0.24,-1.88 0.46,-3.76 0.68,-5.64 0.65,-5.66 0.78,-11.78 -0.68,-17.32 z"
       id="p38" />
    <path
       d="m 283.31,277.74 c 0.25,0.87 0.5,1.74 0.75,2.61 2.02,7.89 3.44,16.02 3.79,24.17 0.01,2.21 -0.15,4.42 -0.33,6.62 0.39,0.37 0.77,0.74 1.15,1.1 -0.54,0.19 -1.08,0.38 -1.62,0.57 -1.84,-3.69 -2.52,-7.99 -3.86,-11.93 -2.34,-7.28 -4.5,-14.68 -7.32,-21.79 l -1.97,-0.66 c 3.14,-0.25 6.27,-0.46 9.41,-0.69 z"
       id="p39" />
    <path
       d="m 304.35,277.94 c 4.33,-0.5 8.66,-0.17 13.02,-0.43 6.2,0.42 11.24,2.98 17.24,5 3.23,1.28 6.43,2.62 9.71,3.77 l -0.05,-2.36 c 0.29,0.97 0.59,1.93 0.91,2.89 5.53,2.76 12.52,5.68 16.49,10.56 1.28,1.28 -0.14,2.38 -0.8,3.53 -5.63,7.68 -11.58,15.11 -17.32,22.7 -1.23,1.04 -2.84,2.52 -4.53,2.56 -3.63,-0.01 -7.39,-1.9 -10.49,-3.67 -4.9,-2.98 -9.52,-6.25 -12.99,-10.88 l -0.08,-0.1 c -1.61,-2.86 -3.07,-5.69 -5.46,-7.99 -3.68,1.19 -7.14,2.92 -10.76,4.33 0.34,-1.8 0.7,-3.61 1.1,-5.4 4.16,-7.05 4.77,-16.52 4.01,-24.51 z m 26.62,41.29 c -0.62,-1.65 -1.28,-3.28 -1.95,-4.9 0.91,-0.29 1.81,-0.57 2.71,-0.85 -5.2,-3.25 -9.98,-6.98 -14.98,-10.49 1.91,4.05 5.54,5.67 8.29,8.9 1.8,2.83 2.81,5.61 5.93,7.34 z"
       id="p40" />
    <path
       d="m 273.9,278.43 1.97,0.66 c 2.82,7.11 4.98,14.51 7.32,21.79 1.34,3.94 2.02,8.24 3.86,11.93 -14.6,6.47 -29.65,12.05 -44.62,17.62 -12.73,4.52 -25.69,9.11 -38.9,11.99 -4.46,0.86 -9.97,2 -14.32,0.3 -4.85,-1.86 -8.96,-5.59 -12.44,-9.35 1.03,-4.99 1.31,-9.83 2.85,-14.7 2.83,-9.15 7.46,-18.03 13.87,-25.19 2.95,-3.31 6.26,-5.87 9.63,-8.72 1.66,2.93 2.91,6.01 4.38,9.03 5.25,-2.57 10.7,-4.37 16.27,-6.11 16.22,-4.93 33.27,-7.75 50.13,-9.25 z"
       id="p41" />
    <path
       d="m 300.34,279.49 c 1.46,5.54 1.33,11.66 0.68,17.32 -4.41,2.63 -8.43,5.67 -13.17,7.71 -0.35,-8.15 -1.77,-16.28 -3.79,-24.17 5.24,-0.21 11.3,0.83 16.28,-0.86 z"
       id="p42" />
    <path
       d="m 201.06,281.22 c 0.72,1.16 1.4,2.35 2.06,3.54 -3.37,2.85 -6.68,5.41 -9.63,8.72 -6.41,7.16 -11.04,16.04 -13.87,25.19 -1.54,4.87 -1.82,9.71 -2.85,14.7 -0.45,-0.49 -0.91,-0.98 -1.35,-1.48 -2.67,-3.02 -4.92,-6.24 -7.42,-9.42 2.8,-12.63 9.1,-24.96 19.28,-33.2 4.14,-3.45 8.84,-5.94 13.78,-8.05 z"
       id="p43" />
    <path
       d="m 343.65,280.83 c 0.21,1.03 0.41,2.06 0.62,3.09 l 0.05,2.36 c -3.28,-1.15 -6.48,-2.49 -9.71,-3.77 2.99,-0.76 5.99,-1.28 9.04,-1.68 z"
       id="p44" />
    <path
       d="m 301.02,296.81 c -0.22,1.88 -0.44,3.76 -0.68,5.64 -0.4,1.79 -0.76,3.6 -1.1,5.4 -1.53,0.65 -3.03,1.33 -4.55,1.99 -1.97,0.88 -3.98,1.69 -6.02,2.4 -0.38,-0.36 -0.76,-0.73 -1.15,-1.1 0.18,-2.2 0.34,-4.41 0.33,-6.62 4.74,-2.04 8.76,-5.08 13.17,-7.71 z"
       id="p45" />
    <path
       d="m 143.16,298.4 c 0.77,1.13 1.55,2.25 2.34,3.36 1.49,2.15 3,4.3 4.41,6.5 2.14,3.5 4.28,7 6.44,10.48 3.24,5.16 5.78,10.78 9.4,15.67 3.54,-0.36 6.42,-1.08 9.67,-2.52 0.44,0.5 0.9,0.99 1.35,1.48 3.48,3.76 7.59,7.49 12.44,9.35 4.35,1.7 9.86,0.56 14.32,-0.3 13.21,-2.88 26.17,-7.47 38.9,-11.99 14.97,-5.57 30.02,-11.15 44.62,-17.62 0.54,-0.19 1.08,-0.38 1.62,-0.57 2.04,-0.71 4.05,-1.52 6.02,-2.4 0.17,2.5 0.37,4.99 0.6,7.47 -0.88,0.84 -1.72,1.73 -2.59,2.58 -3.35,2.07 -7.41,3.31 -11.09,4.72 -25.18,9.41 -51.57,16.77 -77.61,23.42 -5.39,1.26 -11,2.6 -16.32,0.3 -4.47,-1.86 -7.28,-6.72 -11.69,-8.38 -3.92,-1.32 -7.32,1.59 -10.73,3.07 -4.59,-8.57 -8.86,-17.32 -13.35,-25.95 -2.6,-4.9 -4.56,-9.95 -8.01,-14.37 -0.26,-1.43 -0.49,-2.87 -0.74,-4.3 z"
       id="p46" />
    <path
       d="m 143.9,302.7 c 3.45,4.42 5.41,9.47 8.01,14.37 4.49,8.63 8.76,17.38 13.35,25.95 3.41,-1.48 6.81,-4.39 10.73,-3.07 4.41,1.66 7.22,6.52 11.69,8.38 5.32,2.3 10.93,0.96 16.32,-0.3 26.04,-6.65 52.43,-14.01 77.61,-23.42 3.68,-1.41 7.74,-2.65 11.09,-4.72 1.06,2.96 1.88,5.93 1.89,9.1 0.16,6.14 0.56,12.25 0.84,18.38 0.09,4.11 0.25,8.21 0.36,12.32 -11.01,10.82 -21.6,22.01 -32.31,33.11 -2.8,-2.3 -1.15,-5.07 -0.98,-8.14 1.09,-5.34 -0.47,-10.99 -4.28,-14.89 -2.53,-2.42 -5.85,-2.97 -9.22,-3.05 -5.66,-0.04 -11.36,0.78 -17,1.27 -13.07,1.14 -24.79,4.26 -38,4.04 -7.35,-0.11 -15.74,-1.06 -22.21,-4.8 -5.65,-3.27 -9.14,-8.47 -11.67,-14.35 -4.01,-9.37 -6.48,-19.39 -10.03,-28.96 -2.21,-6.94 -5.26,-14.01 -6.19,-21.22 z"
       id="p47" />
    <path
       d="m 316.75,302.99 c 5,3.51 9.78,7.24 14.98,10.49 -0.9,0.28 -1.8,0.56 -2.71,0.85 0.67,1.62 1.33,3.25 1.95,4.9 -3.12,-1.73 -4.13,-4.51 -5.93,-7.34 -2.75,-3.23 -6.38,-4.85 -8.29,-8.9 z"
       id="p48" />
    <path
       d="m 310,303.52 c 2.39,2.3 3.85,5.13 5.46,7.99 -6.67,1.98 -13.71,3.28 -20.17,5.8 -0.23,-2.48 -0.43,-4.97 -0.6,-7.47 1.52,-0.66 3.02,-1.34 4.55,-1.99 3.62,-1.41 7.08,-3.14 10.76,-4.33 z"
       id="p49" />
    <path
       d="m 315.46,311.51 0.08,0.1 c 3.47,4.63 8.09,7.9 12.99,10.88 3.1,1.77 6.86,3.66 10.49,3.67 1.69,-0.04 3.3,-1.52 4.53,-2.56 0.71,1.19 1.4,2.4 2.07,3.61 -2.53,3.43 -7.09,2.29 -10.8,2.86 2.14,1.78 4.56,2.68 7.17,3.52 -0.03,0.76 -0.07,1.53 -0.1,2.29 -0.28,1.01 -0.57,2.02 -0.88,3.02 -10.25,-0.81 -22.21,-3.23 -32.44,-1.38 -6.23,1.42 -8.28,6.3 -13.14,9.85 -0.28,-6.13 -0.68,-12.24 -0.84,-18.38 -0.01,-3.17 -0.83,-6.14 -1.89,-9.1 0.87,-0.85 1.71,-1.74 2.59,-2.58 6.46,-2.52 13.5,-3.82 20.17,-5.8 z"
       id="p50" />
    <path
       d="m 168,322.47 c 2.5,3.18 4.75,6.4 7.42,9.42 -3.25,1.44 -6.13,2.16 -9.67,2.52 0.62,-4.01 1.31,-7.99 2.25,-11.94 z"
       id="p51" />
    <path
       d="m 345.62,327.21 c 0.43,0.86 0.8,1.76 1.15,2.65 -1.25,1.75 -2.92,2.73 -4.78,3.73 -2.61,-0.84 -5.03,-1.74 -7.17,-3.52 3.71,-0.57 8.27,0.57 10.8,-2.86 z"
       id="p52" />
    <path
       d="m 341.89,335.88 c -0.43,14.13 -2.26,28.25 -4.78,42.15 -14.59,6.13 -29.95,10.01 -45.58,12.35 -8.93,1.96 -18.1,2.82 -27.22,3.07 l -0.83,-0.65 c 10.71,-11.1 21.3,-22.29 32.31,-33.11 -0.11,-4.11 -0.27,-8.21 -0.36,-12.32 4.86,-3.55 6.91,-8.43 13.14,-9.85 10.23,-1.85 22.19,0.57 32.44,1.38 0.31,-1 0.6,-2.01 0.88,-3.02 z"
       id="p53" />
  </defs>
  <g
     id="g276">
    <use
       fill="#ab917e"
       xlink:href="#p1"
       id="use170"
       x="0"
       y="0"
       width="100%"
       height="100%"
       transform="matrix(1.3262341,0,0,1.3262341,-165.1161,-73.358142)" />
    <use
       fill="#376f92"
       xlink:href="#p2"
       id="use172"
       x="0"
       y="0"
       width="100%"
       height="100%"
       transform="matrix(1.3262341,0,0,1.3262341,-165.1161,-73.358142)" />
    <use
       fill="#cb9a7a"
       xlink:href="#p3"
       id="use174"
       x="0"
       y="0"
       width="100%"
       height="100%"
       transform="matrix(1.3262341,0,0,1.3262341,-165.1161,-73.358142)" />
    <use
       fill="#20506c"
       xlink:href="#p5"
       id="use178"
       x="0"
       y="0"
       width="100%"
       height="100%"
       transform="matrix(1.3262341,0,0,1.3262341,-165.1161,-73.358142)" />
    <use
       fill="#20506c"
       xlink:href="#p6"
       id="use180"
       x="0"
       y="0"
       width="100%"
       height="100%"
       transform="matrix(1.3262341,0,0,1.3262341,-165.1161,-73.358142)" />
    <use
       fill="#fe8e69"
       xlink:href="#p7"
       id="use182"
       x="0"
       y="0"
       width="100%"
       height="100%"
       transform="matrix(1.3262341,0,0,1.3262341,-165.1161,-73.358142)" />
    <use
       fill="#fca790"
       xlink:href="#p8"
       id="use184"
       x="0"
       y="0"
       width="100%"
       height="100%"
       transform="matrix(1.3262341,0,0,1.3262341,-165.1161,-73.358142)" />
    <use
       fill="#0e3a52"
       xlink:href="#p9"
       id="use186"
       x="0"
       y="0"
       width="100%"
       height="100%"
       transform="matrix(1.3262341,0,0,1.3262341,-165.1161,-73.358142)" />
    <use
       fill="#163d54"
       xlink:href="#p11"
       id="use190"
       x="0"
       y="0"
       width="100%"
       height="100%"
       transform="matrix(1.3262341,0,0,1.3262341,-165.1161,-73.358142)" />
    <use
       fill="#fca790"
       xlink:href="#p12"
       id="use192"
       x="0"
       y="0"
       width="100%"
       height="100%"
       transform="matrix(1.3262341,0,0,1.3262341,-165.1161,-73.358142)" />
    <use
       fill="#ffffff"
       xlink:href="#p13"
       id="use194"
       x="0"
       y="0"
       width="100%"
       height="100%"
       transform="matrix(1.3262341,0,0,1.3262341,-165.1161,-73.358142)" />
    <use
       fill="#243d42"
       xlink:href="#p14"
       id="use196"
       x="0"
       y="0"
       width="100%"
       height="100%"
       transform="matrix(1.3262341,0,0,1.3262341,-165.1161,-73.358142)" />
    <use
       fill="#fe8f6a"
       xlink:href="#p15"
       id="use198"
       x="0"
       y="0"
       width="100%"
       height="100%"
       transform="matrix(1.3262341,0,0,1.3262341,-165.1161,-73.358142)" />
    <use
       fill="#233c41"
       xlink:href="#p16"
       id="use200"
       x="0"
       y="0"
       width="100%"
       height="100%"
       transform="matrix(1.3262341,0,0,1.3262341,-165.1161,-73.358142)" />
    <use
       fill="#ebecf4"
       xlink:href="#p18"
       id="use204"
       x="0"
       y="0"
       width="100%"
       height="100%"
       transform="matrix(1.3262341,0,0,1.3262341,-165.1161,-73.358142)" />
    <use
       fill="#fe8f6a"
       xlink:href="#p19"
       id="use206"
       x="0"
       y="0"
       width="100%"
       height="100%"
       transform="matrix(1.3262341,0,0,1.3262341,-165.1161,-73.358142)" />
    <use
       fill="#fca790"
       xlink:href="#p20"
       id="use208"
       x="0"
       y="0"
       width="100%"
       height="100%"
       transform="matrix(1.3262341,0,0,1.3262341,-165.1161,-73.358142)" />
    <use
       fill="#f65b2b"
       xlink:href="#p21"
       id="use210"
       x="0"
       y="0"
       width="100%"
       height="100%"
       transform="matrix(1.3262341,0,0,1.3262341,-165.1161,-73.358142)" />
    <use
       fill="#376f92"
       xlink:href="#p22"
       id="use212"
       x="0"
       y="0"
       width="100%"
       height="100%"
       transform="matrix(1.3262341,0,0,1.3262341,-165.1161,-73.358142)" />
    <use
       fill="#fc9c3b"
       xlink:href="#p23"
       id="use214"
       x="0"
       y="0"
       width="100%"
       height="100%"
       transform="matrix(1.3262341,0,0,1.3262341,-165.1161,-73.358142)" />
    <use
       fill="#fa8736"
       xlink:href="#p24"
       id="use216"
       x="0"
       y="0"
       width="100%"
       height="100%"
       transform="matrix(1.3262341,0,0,1.3262341,-165.1161,-73.358142)" />
    <use
       fill="#f87531"
       xlink:href="#p25"
       id="use218"
       x="0"
       y="0"
       width="100%"
       height="100%"
       transform="matrix(1.3262341,0,0,1.3262341,-165.1161,-73.358142)" />
    <use
       fill="#d13a11"
       xlink:href="#p26"
       id="use220"
       x="0"
       y="0"
       width="100%"
       height="100%"
       transform="matrix(1.3262341,0,0,1.3262341,-165.1161,-73.358142)" />
    <use
       fill="#e74e21"
       xlink:href="#p27"
       id="use222"
       x="0"
       y="0"
       width="100%"
       height="100%"
       transform="matrix(1.3262341,0,0,1.3262341,-165.1161,-73.358142)" />
    <use
       fill="#fdab3f"
       xlink:href="#p28"
       id="use224"
       x="0"
       y="0"
       width="100%"
       height="100%"
       transform="matrix(1.3262341,0,0,1.3262341,-165.1161,-73.358142)" />
    <use
       fill="#d13a11"
       xlink:href="#p29"
       id="use226"
       x="0"
       y="0"
       width="100%"
       height="100%"
       transform="matrix(1.3262341,0,0,1.3262341,-165.1161,-73.358142)" />
    <use
       fill="#f65b2b"
       xlink:href="#p30"
       id="use228"
       x="0"
       y="0"
       width="100%"
       height="100%"
       transform="matrix(1.3262341,0,0,1.3262341,-165.1161,-73.358142)" />
    <use
       fill="#fdab3f"
       xlink:href="#p31"
       id="use230"
       x="0"
       y="0"
       width="100%"
       height="100%"
       transform="matrix(1.3262341,0,0,1.3262341,-165.1161,-73.358142)" />
    <use
       fill="#fdab3f"
       xlink:href="#p32"
       id="use232"
       x="0"
       y="0"
       width="100%"
       height="100%"
       transform="matrix(1.3262341,0,0,1.3262341,-165.1161,-73.358142)" />
    <use
       fill="#f65b2b"
       xlink:href="#p33"
       id="use234"
       x="0"
       y="0"
       width="100%"
       height="100%"
       transform="matrix(1.3262341,0,0,1.3262341,-165.1161,-73.358142)" />
    <use
       fill="#f65b2b"
       xlink:href="#p34"
       id="use236"
       x="0"
       y="0"
       width="100%"
       height="100%"
       transform="matrix(1.3262341,0,0,1.3262341,-165.1161,-73.358142)" />
    <use
       fill="#376f92"
       xlink:href="#p35"
       id="use238"
       x="0"
       y="0"
       width="100%"
       height="100%"
       transform="matrix(1.3262341,0,0,1.3262341,-165.1161,-73.358142)" />
    <use
       fill="#20506c"
       xlink:href="#p36"
       id="use240"
       x="0"
       y="0"
       width="100%"
       height="100%"
       transform="matrix(1.3262341,0,0,1.3262341,-165.1161,-73.358142)" />
    <use
       fill="#e69329"
       xlink:href="#p37"
       id="use242"
       x="0"
       y="0"
       width="100%"
       height="100%"
       transform="matrix(1.3262341,0,0,1.3262341,-165.1161,-73.358142)" />
    <use
       fill="#fe8f68"
       xlink:href="#p38"
       id="use244"
       x="0"
       y="0"
       width="100%"
       height="100%"
       transform="matrix(1.3262341,0,0,1.3262341,-165.1161,-73.358142)" />
    <use
       fill="#fe8f6a"
       xlink:href="#p39"
       id="use246"
       x="0"
       y="0"
       width="100%"
       height="100%"
       transform="matrix(1.3262341,0,0,1.3262341,-165.1161,-73.358142)" />
    <use
       fill="#fca790"
       xlink:href="#p40"
       id="use248"
       x="0"
       y="0"
       width="100%"
       height="100%"
       transform="matrix(1.3262341,0,0,1.3262341,-165.1161,-73.358142)" />
    <use
       fill="#fca790"
       xlink:href="#p41"
       id="use250"
       x="0"
       y="0"
       width="100%"
       height="100%"
       transform="matrix(1.3262341,0,0,1.3262341,-165.1161,-73.358142)" />
    <use
       fill="#376f92"
       xlink:href="#p42"
       id="use252"
       x="0"
       y="0"
       width="100%"
       height="100%"
       transform="matrix(1.3262341,0,0,1.3262341,-165.1161,-73.358142)" />
    <use
       fill="#fe8f6a"
       xlink:href="#p43"
       id="use254"
       x="0"
       y="0"
       width="100%"
       height="100%"
       transform="matrix(1.3262341,0,0,1.3262341,-165.1161,-73.358142)" />
    <use
       fill="#f65a2c"
       xlink:href="#p44"
       id="use256"
       x="0"
       y="0"
       width="100%"
       height="100%"
       transform="matrix(1.3262341,0,0,1.3262341,-165.1161,-73.358142)" />
    <use
       fill="#20506c"
       xlink:href="#p45"
       id="use258"
       x="0"
       y="0"
       width="100%"
       height="100%"
       transform="matrix(1.3262341,0,0,1.3262341,-165.1161,-73.358142)" />
    <use
       fill="#d13a11"
       xlink:href="#p46"
       id="use260"
       x="0"
       y="0"
       width="100%"
       height="100%"
       transform="matrix(1.3262341,0,0,1.3262341,-165.1161,-73.358142)" />
    <use
       fill="#e74e21"
       xlink:href="#p47"
       id="use262"
       x="0"
       y="0"
       width="100%"
       height="100%"
       transform="matrix(1.3262341,0,0,1.3262341,-165.1161,-73.358142)" />
    <use
       fill="#fe9371"
       xlink:href="#p48"
       id="use264"
       x="0"
       y="0"
       width="100%"
       height="100%"
       transform="matrix(1.3262341,0,0,1.3262341,-165.1161,-73.358142)" />
    <use
       fill="#f65b2b"
       xlink:href="#p49"
       id="use266"
       x="0"
       y="0"
       width="100%"
       height="100%"
       transform="matrix(1.3262341,0,0,1.3262341,-165.1161,-73.358142)" />
    <use
       fill="#ff8f6a"
       xlink:href="#p50"
       id="use268"
       x="0"
       y="0"
       width="100%"
       height="100%"
       transform="matrix(1.3262341,0,0,1.3262341,-165.1161,-73.358142)" />
    <use
       fill="#bd313a"
       xlink:href="#p51"
       id="use270"
       x="0"
       y="0"
       width="100%"
       height="100%"
       transform="matrix(1.3262341,0,0,1.3262341,-165.1161,-73.358142)" />
    <use
       fill="#fca790"
       xlink:href="#p52"
       id="use272"
       x="0"
       y="0"
       width="100%"
       height="100%"
       transform="matrix(1.3262341,0,0,1.3262341,-165.1161,-73.358142)" />
    <use
       fill="#fca790"
       xlink:href="#p53"
       id="use274"
       x="0"
       y="0"
       width="100%"
       height="100%"
       transform="matrix(1.3262341,0,0,1.3262341,-165.1161,-73.358142)" />
  </g>
</svg>
