<?xml version="1.0" encoding="UTF-8" standalone="no"?>
<svg viewBox="0 0 402 628.547" width="402pt" height="628.547pt" xmlns:xlink="http://www.w3.org/1999/xlink" xmlns="http://www.w3.org/2000/svg" xmlns:svg="http://www.w3.org/2000/svg">
   <defs id="defs88">
      <path d="M 0,0 H 400 V 527 H 278.34 c -4.56,-12.31 -10.26,-24.26 -15.7,-36.21 1.27,-1.79 2.13,-3.62 2.37,-5.83 0.78,-7.45 4.33,-14.13 5.32,-21.58 3.46,-12.98 9.01,-25.44 12.46,-38.42 1.08,-0.29 1.99,-0.78 2.73,-1.46 0.86,-1.25 -0.5,-2.2 -1.48,-2.76 0.33,-3.98 -0.04,-7.6 2.01,-11.21 3.32,-5.89 5.15,-12.48 7.79,-18.73 1.63,-3.55 0.03,-6.57 -0.21,-10.33 -0.44,-3.25 1.16,-6.11 1.11,-9.43 -0.16,-2.75 -1.04,-5.38 -1.19,-8.18 -0.14,-3.21 0.45,-6.31 0.12,-9.54 -0.91,-8.75 -2.94,-17.29 -3.99,-26.03 -0.8,-6.61 -2.04,-12.97 -3.63,-19.43 1.64,-0.53 1.6,-1.14 -0.13,-1.82 -1.28,-7.57 1.17,-14.5 1.07,-22.01 -0.02,-4.67 0.58,-9.28 0.8,-13.93 0.52,-7.63 1.47,-15.16 1.45,-22.82 0.53,-3.19 1.19,-6.35 1.96,-9.49 1.28,-5.26 1.91,-10.56 3.7,-15.7 1.79,-4.29 0.26,-7.72 -0.17,-12.03 0.84,-3.04 3.81,-5.65 5.72,-8.11 5.65,-6.6 10.3,-13.86 16.51,-20 3.63,-3.52 6.58,-7.44 9.57,-11.49 1.72,-2.44 7.16,-4.07 6.48,-7.43 -2.03,-16.04 -7.94,-30.77 -10.5,-46.61 -1.48,-5.18 -4.08,-9.56 -6.71,-14.18 -2.25,-3.9 -3.61,-8.23 -5.97,-12.05 -1.78,-2.93 -4.64,-4.67 -6.32,-7.68 -3.57,-6.31 -7.21,-12.68 -11.41,-18.6 -2.2,-3.13 -4.12,-6.44 -5.82,-9.87 -0.17,-0.97 -0.59,-1.7 -1.24,-2.2 l -1.03,-0.97 c -0.45,-0.96 -1.17,-1.27 -2.18,-0.93 -7.27,0.14 -14.55,0.06 -21.83,0.09 -5.86,0.06 -11.5,-0.4 -17.32,0.63 -3.73,0.36 -7.42,0.17 -11.15,0.08 -1.69,-0.17 -2.6,0.96 -3.84,1.89 -6.25,5.42 -12.71,10.66 -18.76,16.31 -5.5,5.84 -10.08,12.7 -14.99,19.03 -3.66,4.31 -7.69,9 -9.45,14.47 -1.77,6.19 -1.39,12.52 -3.32,18.74 -1.13,4.03 -3.33,7.1 -5.09,10.86 -2.48,5.47 -5.65,10.55 -7.86,16.16 -2.33,6.17 -5.59,12.18 -9.61,17.4 -8.04,3.73 -17.01,5.38 -25.09,7.89 -10.81,4.2 -22.85,8.75 -31.78,16.27 -2.8,2.28 -5.05,5.15 -6.37,8.54 -2.64,6.88 -4.87,14.23 -8.48,20.6 -2.52,4.52 -4.88,9.14 -7.11,13.8 -1.89,2.65 -3.48,5.32 -4.82,8.28 -2.19,4.73 -4.74,9.28 -6.84,14.04 -2.18,0.65 -2.96,1.76 -3.11,3.99 l -0.09,0.68 c -1.07,1.43 -2.18,2.83 -3.21,4.3 -5.36,8.85 -9.14,18.72 -13.62,28.04 -4.42,12.63 -11.16,24.13 -15.2,36.88 -2.94,7.11 -3.89,14.59 -4.47,22.2 -0.05,3.11 1.22,6.38 2.04,9.35 1.87,6.66 4.16,13.17 6.38,19.71 2.06,5.99 5.59,10.86 8.23,16.72 3.71,9.56 14.21,16.41 22.63,21.57 0.68,5.69 1.62,11.38 2.94,16.96 1.51,6.53 4.38,12.1 6.61,18.32 -0.42,1.03 -0.13,1.77 0.86,2.24 1.52,2.54 2.84,5.17 4.03,7.88 -0.41,1.01 -0.13,1.75 0.84,2.23 1.73,3.27 3.45,6.56 4.91,9.95 1.48,4.91 2.76,9.77 3,14.92 0.2,12.02 2.78,24.28 5.24,36.04 H 0 Z" id="p0" />
      <path d="m 231.53,50.74 c 3.73,0.09 7.42,0.28 11.15,-0.08 9.74,0.61 19.57,0.25 29.33,0.27 4.12,-0.02 8.13,1.03 12.23,1.04 -0.23,1.25 0.45,1.94 2.04,2.07 1.7,3.43 3.62,6.74 5.82,9.87 4.2,5.92 7.84,12.29 11.41,18.6 1.68,3.01 4.54,4.75 6.32,7.68 2.36,3.82 3.72,8.15 5.97,12.05 2.63,4.62 5.23,9 6.71,14.18 2.56,15.84 8.47,30.57 10.5,46.61 0.68,3.36 -4.76,4.99 -6.48,7.43 -2.99,4.05 -5.94,7.97 -9.57,11.49 -6.21,6.14 -10.86,13.4 -16.51,20 -0.45,-0.6 -0.9,-1.2 -1.34,-1.8 -1.61,1.83 -3.23,3.57 -5.33,4.86 1.27,-3.66 3.78,-6.13 6.2,-9.02 9.21,-11.15 19.95,-21.98 27.79,-34.18 -6.36,0.2 -12.37,2.11 -18.71,2.65 -6.2,0.5 -11.14,4.02 -17.25,4.9 -4.83,0.72 -9.22,2.72 -14,3.71 -7.35,1.55 -14.08,4.52 -21.11,7 -6.85,0.03 -14.01,3.42 -19.95,6.58 -4.7,2.09 -9.19,3.38 -12.96,7.18 -1.94,1.72 -1.6,4.76 -1.51,7.09 -0.57,-1 -1.14,-2.01 -1.73,-3 -3.37,1.46 -6.61,3.19 -9.97,4.66 -2.93,1.27 -5.59,2.89 -7.73,5.3 1.18,-3.01 1.95,-7.34 5.13,-8.86 3.68,-1.94 7.17,-3.67 9.95,-6.88 -5.24,2.25 -12.55,4.09 -15.55,9.27 -2.02,3.02 -3.95,6.15 -5.56,9.41 -2.25,4.36 -1.05,9.64 -2.44,14.51 -1.29,4.32 -3.46,8.24 -4.31,12.74 2.41,-1.5 2.66,-3.28 3.33,-5.86 2.08,3.13 3.63,7.24 6.8,9.24 1.9,3.42 3.58,7.47 3.67,11.41 -1.15,2.95 -3.86,5.46 -6.21,7.5 -0.17,-0.98 -0.32,-1.96 -0.47,-2.94 l 0.1,-0.69 c -4.39,1.46 -6.53,4.04 -9.23,7.59 -2.27,-3.66 -3.74,-7.7 -5.87,-11.42 -1.91,2.19 -4.47,5.07 -4.6,8.09 0.02,4.95 2.22,8.97 1.14,13.99 -1.6,-6.15 -0.24,-11.21 -3.57,-16.42 0.19,-1.23 0.36,-2.46 0.53,-3.69 0.09,1.09 0.19,2.18 0.31,3.27 2.33,-2.01 3.84,-4.25 5.17,-7 1.99,-4.11 5.02,-7.26 7.55,-11.01 -2.81,-2.78 -6.06,-4.92 -8.58,-8 0.13,-0.6 0.25,-1.2 0.37,-1.8 2.35,-0.99 3.52,-3.63 4.81,-5.72 0.95,-3.19 -0.18,-7.1 -3.08,-8.89 -0.83,0.78 -1.64,1.58 -2.44,2.38 -0.45,-2.51 -0.99,-4.99 -1.76,-7.42 -1.34,1.6 -2.61,3.25 -3.84,4.94 -1.01,-2 -2.08,-3.96 -3.24,-5.87 0.32,6.37 1.61,12.66 2.39,18.99 0.24,2.28 1.16,3.99 2.49,5.8 -0.59,6.76 -2.2,13.4 -3.24,20.1 -1.29,5.93 -1.86,11.95 -2.99,17.91 -0.9,2.45 -1.44,4.78 -1.63,7.4 -0.4,5.38 -1.49,10.61 -1.62,16 -0.41,8.29 -0.17,16.49 -1.5,24.7 -0.42,1.96 0.61,2.97 1.63,4.47 0.17,2.32 0.21,4.64 0.13,6.96 -0.03,0.94 -0.06,1.88 -0.1,2.82 0.5,-0.31 1.01,-0.61 1.52,-0.91 0.74,-3.11 1.31,-6.09 3.21,-8.74 1.61,-1.83 -0.63,-4.52 0.12,-6.82 0.96,-3.78 2.02,-7.5 2.77,-11.32 0.68,-0.31 1.37,-0.62 2.05,-0.93 -0.5,7.82 -1.23,15.68 -2.5,23.41 -0.75,4.87 -0.85,9.77 -0.59,14.68 0.56,-1.34 1.12,-2.69 1.69,-4.04 l 0.51,1.2 c -0.81,5.9 -1.27,11.77 -1.71,17.71 -0.3,-2.9 -0.36,-5.81 -0.62,-8.7 l -0.66,-0.4 c -0.8,5.78 -1.17,11.58 -1.33,17.42 -1.13,1.15 -2.03,1.82 -2.06,3.56 -0.8,7.32 -1.26,14.65 -1.15,22.01 0.21,5.74 -2.21,10.14 0.11,15.62 -0.16,3.39 -0.05,6.61 1.1,9.85 -0.46,2.19 -2.49,6.59 -1.01,8.34 6.96,2.43 13.95,3.86 21.16,5.22 3.92,0.72 7.46,2.23 10.93,4.14 -6.59,3.64 -14.03,5.84 -21.07,8.49 5.47,-3.94 11.62,-4.95 17.56,-7.83 -0.9,-1.09 -1.41,-2.23 -2.88,-2.63 -3.72,-1.21 -7.72,-1.68 -11.53,-2.54 -4.53,-0.9 -8.79,-2.48 -13.2,-3.81 -0.78,0.64 -1.55,1.27 -2.32,1.91 0.31,-4.61 0.29,-9.22 0.08,-13.84 -0.36,5.09 -1.59,10.04 -2.12,15.1 -0.42,7.29 -0.8,14.6 -1.41,21.89 -1.38,8.97 -3.01,17.91 -4.34,26.89 -0.89,5.7 0.23,11.3 -1.05,16.99 -0.69,5.18 -3.02,9.79 -3.95,14.89 -3.39,3.69 -4.61,8.16 -6.74,12.55 -3.18,-1.47 -6.37,-2.94 -9.59,-4.36 -7.26,-3.62 -14.99,-6.31 -22.59,-9.13 l -0.34,-0.05 c -0.75,-0.07 -1.5,-0.14 -2.26,-0.19 -2.6,-2.92 -5.82,-5.13 -8.54,-7.9 l -0.35,-0.45 c -2.21,-3.54 -4.55,-6.97 -7.29,-10.12 l 1,-0.72 c -2.39,-5.22 -5.92,-9.54 -7.28,-15.28 l 0.19,-1.82 c 5.05,5.92 6.47,12.97 13.04,17.78 0.16,-0.92 0.32,-1.83 0.47,-2.75 -7.81,-8.28 -12.39,-19.15 -19.3,-28.43 -5.2,-7.01 -6.83,-14.69 -10.05,-22.59 3.77,2.3 7.87,3.86 11.73,5.96 2.32,1.24 2.93,3.79 3.63,6.11 1.89,7.02 2.64,13.67 6.94,19.8 2.65,4.14 4.86,8.48 7.25,12.76 -0.11,-5.7 -0.45,-11.15 0.28,-16.84 0.81,1.31 1.6,2.62 2.39,3.93 -0.2,-11.1 3.08,-21.7 2.39,-32.75 -0.62,2.88 -1.17,5.67 -2.8,8.2 -1.26,-8.5 1.03,-17.88 1.9,-26.4 -4.33,5.54 -8.14,11.76 -10.61,18.36 -1.4,3.51 -1.11,7.03 -0.16,10.61 -0.92,0.09 -1.84,0.18 -2.76,0.27 -2.22,-2.52 -4.09,-5 -7.28,-6.38 -5.01,-2.36 -10.27,-4.64 -13.52,-9.41 -2.06,-3.85 -1.44,-9.74 -4.06,-13.48 -0.58,-0.23 -1.19,-0.4 -1.82,-0.53 -8.42,-5.16 -18.92,-12.01 -22.63,-21.57 -2.64,-5.86 -6.17,-10.73 -8.23,-16.72 -2.22,-6.54 -4.51,-13.05 -6.38,-19.71 -0.82,-2.97 -2.09,-6.24 -2.04,-9.35 0.58,-7.61 1.53,-15.09 4.47,-22.2 4.04,-12.75 10.78,-24.25 15.2,-36.88 4.48,-9.32 8.26,-19.19 13.62,-28.04 0.84,-0.31 1.68,-0.61 2.51,-0.92 0.24,-1.12 0.47,-2.25 0.7,-3.38 0.77,0.95 1.56,1.89 2.36,2.81 1.31,-2.3 2.35,-4.68 3.25,-7.17 3.02,-8.01 7.75,-14.08 9.25,-22.63 2.23,-4.66 4.59,-9.28 7.11,-13.8 3.61,-6.37 5.84,-13.72 8.48,-20.6 1.32,-3.39 3.57,-6.26 6.37,-8.54 8.93,-7.52 20.97,-12.07 31.78,-16.27 8.08,-2.51 17.05,-4.16 25.09,-7.89 4.02,-5.22 7.28,-11.23 9.61,-17.4 2.21,-5.61 5.38,-10.69 7.86,-16.16 1.76,-3.76 3.96,-6.83 5.09,-10.86 1.93,-6.22 1.55,-12.55 3.32,-18.74 1.76,-5.47 5.79,-10.16 9.45,-14.47 4.91,-6.33 9.49,-13.19 14.99,-19.03 6.05,-5.65 12.51,-10.89 18.76,-16.31 1.24,-0.93 2.15,-2.06 3.84,-1.89 z m -64.48,122.79 c -0.66,-0.07 -1.31,-0.15 -1.96,-0.22 -1.11,-1.41 -2.21,-2.82 -3.38,-4.19 -1.57,1.71 -2.71,3.67 -3.73,5.74 2.02,0.08 4.04,0.13 6.06,0.17 0.73,0.71 1.46,1.43 2.19,2.14 -0.54,5 -2.02,9.68 -2.17,14.7 3.03,-7.53 1.81,-17.21 5.94,-24.27 1.13,5.97 -0.44,11.5 -0.27,17.45 0.11,3.58 -0.6,6.65 0.71,10.02 0.97,2.7 0.08,5.93 0.81,8.6 1.32,2.46 4.01,4.29 6.21,5.91 1.16,-3.64 -0.34,-7.26 -1.23,-10.81 -1.7,-5.44 -3.64,-10.66 -4.01,-16.43 -0.39,-5.41 -2.1,-11.42 -0.83,-16.66 0.94,-4.37 2.1,-8.62 2.25,-13.12 -0.47,2.15 -0.81,4.35 -1.4,6.47 -0.71,2.36 -2.38,4.38 -3.11,6.78 -0.77,2.55 -1.34,5.16 -2.08,7.72 z m 157.84,-14.49 c 1.67,-0.02 3.33,-0.07 5,-0.13 0,-0.95 -0.01,-1.9 -0.02,-2.84 -2.65,0.4 -3.4,0.77 -4.98,2.97 z M 114.27,263.81 c -0.23,3 -0.04,5.98 0.07,8.98 0.17,3.9 -1.46,7.21 -0.56,11.14 0.68,3.19 0.66,6.88 2.92,9.31 0.27,-5.72 -0.38,-11.53 -0.75,-17.24 -0.43,-4.25 -0.28,-8.13 -1.68,-12.19 z m -11.45,65.87 c -0.74,-0.91 -1.48,-1.81 -2.22,-2.72 -5.83,2.62 -11.77,2.71 -17.95,3.9 -3.81,0.7 -7.55,0.22 -11.15,-1.14 -6,-2.09 -9.17,-7.72 -15.41,-9.58 4.76,3.91 9.84,8.72 15.71,10.81 9.48,2.68 18.65,-1.93 28.19,-1.96 0.42,2.46 1.12,5.21 0.77,7.71 -2.47,2.49 -4.98,3.9 -5.47,7.74 1,2.3 2.77,4.26 3.58,6.7 1.28,3.84 1.79,8.01 1.98,12.03 -4.98,-1.32 -8.61,-5.56 -13.52,-7.32 -3.59,-1.82 -9.99,-2.97 -11.78,-6.87 0.48,-1.61 1.28,-3.2 2.01,-4.73 -4.68,-1.87 -9.48,-1.1 -13.96,0.95 1.97,1.97 4.42,2.25 6.95,3.35 4.14,1.57 7.17,4.67 11.31,6.3 3.36,1.33 6.66,2.45 9.51,4.77 3.18,2.51 6.33,4.3 10.3,5.24 1.64,-2.54 3.2,-5.12 4.71,-7.74 1.53,3.42 3.39,7.18 3.79,10.94 -0.5,1.68 -1.39,3.24 -1.89,4.93 0.18,4.57 2.6,7.95 5.77,11.02 3.09,-8.98 3.15,-18.13 1.23,-27.36 -0.47,-0.31 -0.95,-0.62 -1.42,-0.93 -0.04,1.79 -0.09,3.58 -0.15,5.37 -3.82,-0.98 -5.01,-2.59 -6.59,-6.03 0.87,-0.39 1.73,-0.77 2.59,-1.16 -0.03,-0.47 -0.06,-0.94 -0.1,-1.41 -3.93,-3.35 -8.06,-6.13 -10.83,-10.61 0.81,-2.5 5.63,-2.61 7.84,-3.76 1.29,-3.44 2.85,-6 5.4,-8.66 -1.99,1.2 -3.97,2.12 -6.25,2.65 -1.2,-5.85 4.43,-8.26 6.99,-12.5 0.25,-2.79 -0.24,-5.48 0.45,-8.28 0.84,-3.45 1.56,-6.89 1.9,-10.44 -0.76,0.15 -1.53,0.3 -2.29,0.45 -1.51,-4.34 -2.26,-8.86 -3.59,-13.24 0.83,8.25 3.04,16.62 3.26,24.9 -0.05,2.1 0.2,4.54 -1.12,6.3 -2.61,3.64 -5.72,6.92 -8.55,10.38 z m -45.97,5.93 c 7.14,-1.46 13.2,-1.17 20.33,0.25 6.28,0.72 12.62,2.52 18.94,2.4 -0.46,-0.97 -0.92,-1.94 -1.38,-2.9 -10.03,1.23 -20.52,-1.73 -30.68,-2.66 -2.48,-0.03 -5.04,1.82 -7.21,2.91 z m 1.3,6.64 c -5.52,3.05 -11.53,3.04 -14.42,9.32 3.29,-2.27 5.95,-4.78 9.67,-6.35 8.02,-3.37 16.14,-3.67 24.51,-5.73 -7.15,-2.74 -13.38,-0.64 -21.38,-1.11 0.49,1.31 1.07,2.59 1.62,3.87 z m 89.45,52.17 c 1.06,0.93 2.17,1.86 3.09,2.91 0.78,2.42 0.65,5.2 0.78,7.72 0.05,6.36 1.04,12.6 0.71,18.98 -0.05,5.08 -0.68,10.58 0.41,15.56 0.14,-9.26 -0.07,-18.49 0.81,-27.75 0.95,-9.05 1.98,-18.09 3.04,-27.12 0.43,-6.7 1.58,-13.24 1.17,-19.81 -1.14,8.26 0.22,17.48 -5.51,24.24 -0.59,-6.77 -0.26,-13.35 -0.29,-20.15 0.03,-5.35 -0.19,-10.68 -0.03,-16.03 0.01,-2.08 0.26,-3.97 -0.45,-5.96 -0.18,9.98 -0.09,20 -0.12,29.99 -0.07,4.26 0.4,8.68 -0.24,12.89 -0.68,1.71 -2.19,3.13 -3.37,4.53 z m -35.09,7.84 c 4.43,-7.4 8.82,-15.29 9.44,-24.08 -0.6,-1.6 -2.53,-2.62 -3.92,-3.43 -2.55,4.9 -2.68,9.92 -3.29,15.26 -0.44,4.52 -3.16,7.58 -2.23,12.25 z m 32.34,67.9 c 3.55,-4.11 5.39,-8.98 6.19,-14.31 -2.73,4.47 -4.88,9.24 -6.19,14.31 z m -14.82,30.62 c -1.77,-1.37 -3.47,-3.03 -5.46,-4.08 -3.89,-0.72 -7.68,-0.12 -11.56,-1.55 -3.15,-1.14 -6.19,-2.55 -9.37,-3.62 3.18,1.9 6.42,3.63 10.06,4.48 3.31,0.77 6.81,0.45 10.09,1.05 2.81,1.9 4.95,5.58 8.38,6.26 1.29,0.35 2.34,-0.11 3.57,-0.42 -0.79,-2.42 -3.04,-5.47 -1.98,-7.99 0.63,-2.29 1.45,-4.52 2.13,-6.79 -2.19,4.14 -3.45,8.62 -5.86,12.66 z m 19.15,9.75 c 0.83,-2.26 1.25,-4.44 1.44,-6.83 -1.09,1.24 -2.15,2.51 -3.21,3.77 -3.48,-1.69 -6.8,-3.51 -10.58,-4.49 3.75,3.1 7.93,5.55 12.35,7.55 z" id="p1" />
      <path d="m 260,50.03 c 7.28,-0.03 14.56,0.05 21.83,-0.09 0.43,1.01 1.15,1.32 2.18,0.93 l 1.03,0.97 -0.8,0.13 c -4.1,-0.01 -8.11,-1.06 -12.23,-1.04 -9.76,-0.02 -19.59,0.34 -29.33,-0.27 5.82,-1.03 11.46,-0.57 17.32,-0.63 z" id="p2" />
      <path d="m 281.83,49.94 c 1.01,-0.34 1.73,-0.03 2.18,0.93 -1.03,0.39 -1.75,0.08 -2.18,-0.93 z" id="p3" />
      <path d="m 284.24,51.97 0.8,-0.13 c 0.65,0.5 1.07,1.23 1.24,2.2 -1.59,-0.13 -2.27,-0.82 -2.04,-2.07 z" id="p4" />
      <path d="m 173.64,152.56 c -0.15,4.5 -1.31,8.75 -2.25,13.12 -1.27,5.24 0.44,11.25 0.83,16.66 0.37,5.77 2.31,10.99 4.01,16.43 0.89,3.55 2.39,7.17 1.23,10.81 -2.2,-1.62 -4.89,-3.45 -6.21,-5.91 -0.73,-2.67 0.16,-5.9 -0.81,-8.6 -1.31,-3.37 -0.6,-6.44 -0.71,-10.02 -0.17,-5.95 1.4,-11.48 0.27,-17.45 -4.13,7.06 -2.91,16.74 -5.94,24.27 0.15,-5.02 1.63,-9.7 2.17,-14.7 -0.73,-0.71 -1.46,-1.43 -2.19,-2.14 0.35,-0.57 0.7,-1.15 1.05,-1.72 0.65,0.07 1.3,0.15 1.96,0.22 0.74,-2.56 1.31,-5.17 2.08,-7.72 0.73,-2.4 2.4,-4.42 3.11,-6.78 0.59,-2.12 0.93,-4.32 1.4,-6.47 z" id="p5" />
      <path d="m 329.87,156.07 c 0.01,0.94 0.02,1.89 0.02,2.84 -1.67,0.06 -3.33,0.11 -5,0.13 1.58,-2.2 2.33,-2.57 4.98,-2.97 z" id="p6" />
      <path d="m 327.77,161.81 c -7.84,12.2 -18.58,23.03 -27.79,34.18 -2.42,2.89 -4.93,5.36 -6.2,9.02 2.1,-1.29 3.72,-3.03 5.33,-4.86 0.44,0.6 0.89,1.2 1.34,1.8 -1.91,2.46 -4.88,5.07 -5.72,8.11 0.43,4.31 1.96,7.74 0.17,12.03 -0.48,0.09 -0.95,0.17 -1.42,0.26 -0.89,-3.3 -1.74,-5.94 -4.52,-8.14 -2.42,1.23 -4.84,2.46 -7.28,3.68 3.03,-4.07 6.6,-7.45 9,-11.98 -5.83,5.29 -12.89,10.04 -17.27,16.62 1.12,0.21 2.25,0.43 3.38,0.64 -3.42,4.83 -7.5,10.03 -9.44,15.63 -0.8,3.68 -0.6,7.33 -0.19,11.03 0.58,5.96 1.84,11.34 -0.17,17.23 0.26,-4.48 0.21,-8.95 -0.13,-13.43 l -0.03,-0.93 c -5.43,1.17 -9.28,4.45 -13.86,7.26 1.08,-1.56 2.17,-2.92 2.07,-4.95 -0.05,-4.98 -0.66,-9.98 -1.2,-14.93 -3.39,3.47 -5.03,7.72 -6.75,12.15 -1.07,-4.01 -0.84,-8 -1.1,-12.08 1.12,-1.28 2.2,-2.55 3.45,-3.71 1.42,1.33 2.87,0.11 4.15,-0.75 2.77,-2.34 4.49,-5.43 7.64,-7.46 3.34,-2.14 6.8,-3.39 9.53,-6.44 5.24,-5.75 9.56,-11.54 16.28,-15.77 2.47,-1.94 5.37,-2.64 5.51,-6.24 2.23,-5.65 7.3,-10.34 11.25,-14.94 3.4,-4.01 7.28,-6.71 9.2,-11.44 -1.65,-0.63 -3.31,-1.26 -4.97,-1.88 0.29,-1.77 0.45,-3.55 0.58,-5.33 -4.76,1.11 -9.38,1.63 -12.84,5.45 -0.18,-0.55 -0.36,-1.1 -0.55,-1.65 -3.16,0.57 -5.68,2.16 -8.33,3.86 -3.94,-3.17 -8.52,1.02 -10.16,4.68 -0.81,1.48 -1.56,2.99 -2.25,4.53 -1.6,-2.46 -1.12,-4.59 -0.79,-7.35 -4.31,0.67 -7.5,3.02 -11.34,4.86 -0.41,2.25 -0.71,4.51 -0.79,6.79 -0.26,-2 -0.58,-3.99 -0.91,-5.98 -0.73,-0.24 -1.45,-0.48 -2.18,-0.72 l -1.77,-0.59 c 7.03,-2.48 13.76,-5.45 21.11,-7 4.78,-0.99 9.17,-2.99 14,-3.71 6.11,-0.88 11.05,-4.4 17.25,-4.9 6.34,-0.54 12.35,-2.45 18.71,-2.65 z m -16.69,4.48 c 0.37,2.02 0.79,4.04 1.29,6.03 0.85,-2.51 0.91,-4.8 0.67,-7.42 -0.65,0.46 -1.31,0.93 -1.96,1.39 z" id="p7" />
      <path d="m 313.04,164.9 c 0.24,2.62 0.18,4.91 -0.67,7.42 -0.5,-1.99 -0.92,-4.01 -1.29,-6.03 0.65,-0.46 1.31,-0.93 1.96,-1.39 z" id="p8" />
      <path d="m 308.61,166.19 c -0.13,1.78 -0.29,3.56 -0.58,5.33 -0.61,1.21 -1.26,2.39 -1.92,3.58 -0.17,-2.38 -0.31,-4.75 -0.48,-7.12 -4.51,6.35 -7.44,13.46 -9.47,20.94 -0.43,-3.95 -0.61,-7.86 -0.49,-11.84 -0.69,2.44 -1.52,4.81 -2.56,7.11 -0.28,-1.36 -0.54,-2.72 -0.79,-4.09 -0.91,3.72 -2,7.36 -3.38,10.93 -0.4,-2.61 -0.91,-5.18 -1.7,-7.7 -2.79,2.53 -3.22,4.9 -3.7,8.49 -1.24,-2.03 -2.55,-4.03 -3.73,-6.09 -1.24,-2.33 -2.1,-4.76 -3.08,-7.2 1.64,-3.66 6.22,-7.85 10.16,-4.68 2.65,-1.7 5.17,-3.29 8.33,-3.86 0.19,0.55 0.37,1.1 0.55,1.65 3.46,-3.82 8.08,-4.34 12.84,-5.45 z" id="p9" />
      <path d="m 305.63,167.98 c 0.17,2.37 0.31,4.74 0.48,7.12 0.66,-1.19 1.31,-2.37 1.92,-3.58 1.66,0.62 3.32,1.25 4.97,1.88 -1.92,4.73 -5.8,7.43 -9.2,11.44 -3.95,4.6 -9.02,9.29 -11.25,14.94 -3.25,2.72 -6.78,5.05 -10.15,7.62 -7.51,5.91 -11.66,13.35 -19.91,18.2 -2.3,1.56 -4.32,2.17 -7.05,2.38 -1.49,3.52 -2.87,6.15 -6,8.46 -1.25,1.16 -2.33,2.43 -3.45,3.71 -0.48,-4.45 -1.83,-8.62 -2.01,-13.1 -0.35,-5.05 0.39,-10.05 0.07,-15.11 0.6,-0.53 1.2,-1.06 1.81,-1.57 3.44,-2.9 7.79,-4.6 11.85,-6.81 3.05,-1.39 5.9,-3.06 8.72,-4.84 1.11,-0.45 2.22,-0.89 3.31,-1.4 2.63,-2.49 5.21,-5.04 7.95,-7.43 0.95,-1.27 1.52,-2.71 2.12,-4.16 1.18,2.06 2.49,4.06 3.73,6.09 0.48,-3.59 0.91,-5.96 3.7,-8.49 0.79,2.52 1.3,5.09 1.7,7.7 1.38,-3.57 2.47,-7.21 3.38,-10.93 0.25,1.37 0.51,2.73 0.79,4.09 1.04,-2.3 1.87,-4.67 2.56,-7.11 -0.12,3.98 0.06,7.89 0.49,11.84 2.03,-7.48 4.96,-14.59 9.47,-20.94 z" id="p10" />
      <path d="m 161.71,169.12 c 1.17,1.37 2.27,2.78 3.38,4.19 -0.35,0.57 -0.7,1.15 -1.05,1.72 -2.02,-0.04 -4.04,-0.09 -6.06,-0.17 1.02,-2.07 2.16,-4.03 3.73,-5.74 z" id="p11" />
      <path d="m 273.69,175.71 c -0.33,2.76 -0.81,4.89 0.79,7.35 -0.39,1.58 -0.72,3.18 -1.15,4.75 -0.53,0.84 -1.07,1.67 -1.6,2.5 -0.83,-0.09 -1.65,-0.18 -2.48,-0.28 -0.89,1.9 -1.79,3.8 -2.69,5.69 -2.94,-2.02 -1.33,-8.01 -1.21,-11.03 0.89,2.02 1.68,4.08 2.3,6.21 -0.88,-3.67 -0.56,-7.26 -0.17,-10.95 -3.56,1.81 -4.29,4.98 -5.85,8.34 l -0.07,-0.93 c 0.08,-2.28 0.38,-4.54 0.79,-6.79 3.84,-1.84 7.03,-4.19 11.34,-4.86 z" id="p12" />
      <path d="m 256.7,180.07 1.77,0.59 c -5.84,3.31 -12.2,4.74 -18.27,7.54 -4.76,2.21 -9.5,3.35 -13.6,6.82 5.23,6.05 11.65,12.48 19.26,15.35 -0.61,0.51 -1.21,1.04 -1.81,1.57 -1.39,-1.18 -2.78,-2.37 -4.22,-3.5 -1.31,3.54 -1.83,7.22 -2.74,10.85 -1.14,4.79 -5.41,8.76 -9.41,11.32 -3.87,2.48 -8.26,2.2 -12.68,2.33 -3.19,-0.04 -6.56,0.12 -9.69,-0.55 -2.68,-1.01 -5.02,-2.97 -7.51,-4.36 0.09,1.51 0.07,3.12 0.46,4.59 2.35,2.74 5.66,3.69 9.05,4.43 5.76,1.21 11.03,0.56 16.9,1.14 -1.71,1.07 -2.91,2.41 -5.11,1.95 -5.41,-0.82 -10.76,-2.61 -16.23,-3.17 -1.4,-0.23 -2.43,0.37 -3.65,0.91 0.32,1.19 0.65,2.39 0.98,3.57 -3.17,-2 -4.72,-6.11 -6.8,-9.24 -0.67,2.58 -0.92,4.36 -3.33,5.86 0.85,-4.5 3.02,-8.42 4.31,-12.74 1.39,-4.87 0.19,-10.15 2.44,-14.51 1.61,-3.26 3.54,-6.39 5.56,-9.41 3,-5.18 10.31,-7.02 15.55,-9.27 -2.78,3.21 -6.27,4.94 -9.95,6.88 -3.18,1.52 -3.95,5.85 -5.13,8.86 -2.09,6.1 -4.97,11.24 -4.02,17.98 2.97,3.27 7.37,6.91 12.1,6.49 4.85,0 10.96,0.5 15.28,-2 3.92,-2.17 7.72,-5.64 9.38,-9.89 1.64,-4.25 2.47,-8.75 2.24,-13.31 -4.47,-1.53 -4.65,3.07 -8.67,3.87 -3.07,0.83 -5.11,2.42 -7.37,4.55 0.38,-1.17 0.73,-2.39 1.26,-3.51 1.41,-1.25 3.2,-2.13 4.81,-3.1 -1.9,-2.6 -4.02,-5.22 -5.58,-8.04 -0.09,-2.33 -0.43,-5.37 1.51,-7.09 3.77,-3.8 8.26,-5.09 12.96,-7.18 5.94,-3.16 13.1,-6.55 19.95,-6.58 z" id="p13" />
      <path d="m 276.73,178.53 c 0.98,2.44 1.84,4.87 3.08,7.2 -0.6,1.45 -1.17,2.89 -2.12,4.16 -1.43,-0.73 -2.88,-1.45 -4.36,-2.08 0.43,-1.57 0.76,-3.17 1.15,-4.75 0.69,-1.54 1.44,-3.05 2.25,-4.53 z" id="p14" />
      <path d="m 267.48,179.95 c -0.39,3.69 -0.71,7.28 0.17,10.95 -0.62,-2.13 -1.41,-4.19 -2.3,-6.21 -0.12,3.02 -1.73,9.01 1.21,11.03 1.05,0.56 2.11,1.08 3.18,1.6 -1.09,0.51 -2.2,0.95 -3.31,1.4 -3.21,-0.1 -6.12,0.4 -8.44,2.81 -0.12,0.68 -0.21,1.35 -0.28,2.03 -4.06,2.21 -8.41,3.91 -11.85,6.81 -7.61,-2.87 -14.03,-9.3 -19.26,-15.35 4.1,-3.47 8.84,-4.61 13.6,-6.82 6.07,-2.8 12.43,-4.23 18.27,-7.54 0.73,0.24 1.45,0.48 2.18,0.72 0.33,1.99 0.65,3.98 0.91,5.98 l 0.07,0.93 c 1.56,-3.36 2.29,-6.53 5.85,-8.34 z" id="p15" />
      <path d="m 273.33,187.81 c 1.48,0.63 2.93,1.35 4.36,2.08 -2.74,2.39 -5.32,4.94 -7.95,7.43 -1.07,-0.52 -2.13,-1.04 -3.18,-1.6 0.9,-1.89 1.8,-3.79 2.69,-5.69 0.83,0.1 1.65,0.19 2.48,0.28 0.53,-0.83 1.07,-1.66 1.6,-2.5 z" id="p16" />
      <path d="m 220.55,197.92 c 0.59,0.99 1.16,2 1.73,3 1.56,2.82 3.68,5.44 5.58,8.04 -1.61,0.97 -3.4,1.85 -4.81,3.1 -0.53,1.12 -0.88,2.34 -1.26,3.51 2.26,-2.13 4.3,-3.72 7.37,-4.55 4.02,-0.8 4.2,-5.4 8.67,-3.87 0.23,4.56 -0.6,9.06 -2.24,13.31 -1.66,4.25 -5.46,7.72 -9.38,9.89 -4.32,2.5 -10.43,2 -15.28,2 -4.73,0.42 -9.13,-3.22 -12.1,-6.49 -0.95,-6.74 1.93,-11.88 4.02,-17.98 2.14,-2.41 4.8,-4.03 7.73,-5.3 3.36,-1.47 6.6,-3.2 9.97,-4.66 z" id="p17" />
      <path d="m 266.43,198.72 c -2.82,1.78 -5.67,3.45 -8.72,4.84 0.07,-0.68 0.16,-1.35 0.28,-2.03 2.32,-2.41 5.23,-2.91 8.44,-2.81 z" id="p18" />
      <path d="m 292.55,199.78 c -0.14,3.6 -3.04,4.3 -5.51,6.24 -6.72,4.23 -11.04,10.02 -16.28,15.77 -2.73,3.05 -6.19,4.3 -9.53,6.44 -3.15,2.03 -4.87,5.12 -7.64,7.46 -1.28,0.86 -2.73,2.08 -4.15,0.75 3.13,-2.31 4.51,-4.94 6,-8.46 2.73,-0.21 4.75,-0.82 7.05,-2.38 8.25,-4.85 12.4,-12.29 19.91,-18.2 3.37,-2.57 6.9,-4.9 10.15,-7.62 z" id="p19" />
      <path d="m 290.68,205.91 c -2.4,4.53 -5.97,7.91 -9,11.98 2.44,-1.22 4.86,-2.45 7.28,-3.68 2.78,2.2 3.63,4.84 4.52,8.14 0.47,-0.09 0.94,-0.17 1.42,-0.26 -1.79,5.14 -2.42,10.44 -3.7,15.7 -0.77,3.14 -1.43,6.3 -1.96,9.49 -0.22,-0.77 -0.45,-1.54 -0.69,-2.31 -1.02,7.95 -2.54,15.8 -3.63,23.74 -0.96,7.49 -5.19,13.6 -5.51,21.08 -0.45,6.77 -1.57,13.45 -1.78,20.24 -0.22,8.52 -1.55,16.91 -1.67,25.43 -0.81,6.55 -2.04,12.81 -1.01,19.45 3.49,-1.77 7.09,-4.88 10.98,-5.48 3.12,0.48 5.25,3.56 5.96,6.49 -2.12,-1.56 -4.03,-3.34 -5.9,-5.19 -3.7,1.76 -7.59,3.76 -10.67,6.49 -1.4,1.17 -1.3,2.95 -1.61,4.63 -0.57,5.92 -1.14,11.85 -1.68,17.78 -1.3,8.04 -1.48,16.18 -0.86,24.3 l 1.63,-0.11 c -0.39,-5.98 -0.3,-11.81 0.62,-17.75 0.51,0.98 1.01,1.97 1.49,2.97 3.82,11.2 5.95,22.7 6.96,34.46 -1.76,3.54 -3.08,7.24 -4.49,10.93 -1.66,4.37 -4.39,8.13 -6.13,12.46 0.49,0.5 0.98,1 1.48,1.51 -0.31,1.86 -0.62,3.73 -0.92,5.6 -0.5,-1.3 -1,-2.59 -1.51,-3.89 -1.45,4.97 -1.45,8.27 0.03,13.27 -0.99,7.45 -4.54,14.13 -5.32,21.58 -0.24,2.21 -1.1,4.04 -2.37,5.83 -3.16,3.3 -5.24,6.84 -6.94,11.07 -1.58,0.64 -3.16,1.29 -4.74,1.93 0.51,-4.69 1.13,-9.2 0.34,-13.91 -1.46,-7.99 -0.69,-16.75 -0.43,-24.88 0.13,-4.81 0.95,-9.49 2.08,-14.16 1.25,-5.14 1.44,-10.39 2.48,-15.55 3.5,-13.2 -0.81,-28.69 -0.33,-42.3 0.09,-1.81 1.61,-3.53 2.6,-5 -1.44,-0.78 -2.82,-0.8 -2.98,-2.74 -0.92,-10.34 -0.93,-20.87 -0.94,-31.25 -0.11,-5.49 -0.32,-10.94 0.27,-16.41 1.07,-11.22 -0.97,-22.47 0.22,-33.63 0.09,-3.42 0.07,-6.3 -3.31,-8.08 -1.66,-2.14 -2.65,-4.36 -4.66,-6.17 -1.23,-1.2 -2.8,-2.3 -3.71,-3.78 -0.12,-2.19 0.49,-4.53 0.93,-6.68 l 0.19,-0.87 1.52,1.61 c 0.35,3.74 -0.15,6.88 3.27,9.36 -0.04,-3.5 -1.29,-8.71 1.25,-11.55 3.16,-2.17 6.62,-1.59 10.14,-0.91 0.78,15.49 0.5,31.19 0.1,46.69 l 1.33,-0.25 c 1.24,-0.22 2.48,-0.43 3.71,-0.65 0.14,-4.01 0.03,-7.99 0.54,-11.98 0.87,-7.82 0.23,-15.82 0.42,-23.7 0.2,-7.06 -0.78,-13.28 1,-19.94 2.01,-5.89 0.75,-11.27 0.17,-17.23 0.95,-4.03 1.06,-6.96 0.19,-11.03 1.94,-5.6 6.02,-10.8 9.44,-15.63 -1.13,-0.21 -2.26,-0.43 -3.38,-0.64 4.38,-6.58 11.44,-11.33 17.27,-16.62 z m -33.59,185.84 c 0.06,5.49 1.6,10.74 1.76,16.21 0.19,3.94 -0.02,7.63 1.77,11.26 0.22,-5.63 -0.45,-11.38 -0.94,-16.99 -0.31,-3.65 -1.02,-7.15 -2.59,-10.48 z m 10.88,54.47 c 4.01,-8.42 4.28,-18.97 5.11,-28.19 -0.07,-3.06 0.74,-7.39 -0.89,-10.08 -0.62,6.67 -0.39,13.4 -1.06,20.07 -0.38,6.26 -3.07,11.89 -3.16,18.2 z" id="p20" />
      <path d="m 239.83,208.44 c 1.44,1.13 2.83,2.32 4.22,3.5 0.32,5.06 -0.42,10.06 -0.07,15.11 0.18,4.48 1.53,8.65 2.01,13.1 0.26,4.08 0.03,8.07 1.1,12.08 l 0.32,1.58 c -1.78,8.13 -1.93,16.44 -3.7,24.57 l -0.19,0.87 c -0.77,-5.33 -3.24,-9.96 -4.45,-15.17 2.3,-3.43 5.07,-5.77 6.14,-9.88 -6.78,2.38 -11.19,7.38 -17.46,10.53 -6.31,3.13 -12.67,5.59 -19.8,5.93 -6.68,0.52 -12.69,-1.06 -19.21,-2.11 1.27,-2.68 3.44,-4.12 5.59,-5.98 1.12,-1.59 1.89,-3.46 2.86,-5.15 0.15,0.98 0.3,1.96 0.47,2.94 2.35,-2.04 5.06,-4.55 6.21,-7.5 -0.09,-3.94 -1.77,-7.99 -3.67,-11.41 -0.33,-1.18 -0.66,-2.38 -0.98,-3.57 1.22,-0.54 2.25,-1.14 3.65,-0.91 5.47,0.56 10.82,2.35 16.23,3.17 2.2,0.46 3.4,-0.88 5.11,-1.95 -5.87,-0.58 -11.14,0.07 -16.9,-1.14 -3.39,-0.74 -6.7,-1.69 -9.05,-4.43 -0.39,-1.47 -0.37,-3.08 -0.46,-4.59 2.49,1.39 4.83,3.35 7.51,4.36 3.13,0.67 6.5,0.51 9.69,0.55 4.42,-0.13 8.81,0.15 12.68,-2.33 4,-2.56 8.27,-6.53 9.41,-11.32 0.91,-3.63 1.43,-7.31 2.74,-10.85 z" id="p21" />
      <path d="m 170.96,209.75 c 1.16,1.91 2.23,3.87 3.24,5.87 1.23,-1.69 2.5,-3.34 3.84,-4.94 0.77,2.43 1.31,4.91 1.76,7.42 0.53,2.19 2.96,3.71 4.31,5.47 -1.03,0.1 -2.06,0.23 -3.08,0.38 -3.44,2.75 -4.18,6.53 -5.19,10.59 -1.33,-1.81 -2.25,-3.52 -2.49,-5.8 -0.78,-6.33 -2.07,-12.62 -2.39,-18.99 z" id="p22" />
      <path d="m 182.24,215.72 c 2.9,1.79 4.03,5.7 3.08,8.89 l -1.21,-1.04 c -1.35,-1.76 -3.78,-3.28 -4.31,-5.47 0.8,-0.8 1.61,-1.6 2.44,-2.38 z" id="p23" />
      <path d="m 181.03,223.95 c -0.14,2.13 -0.29,4.26 -0.52,6.38 -0.12,0.6 -0.24,1.2 -0.37,1.8 -1.57,7.5 -3.41,15.14 -4.45,22.74 -0.17,1.23 -0.34,2.46 -0.53,3.69 -1.51,6.54 -1.63,13.12 -2.09,19.77 -1.18,8.5 -1.03,17.1 -2.11,25.6 -0.99,6.62 0.48,12.75 -1.9,19.25 -0.99,-0.49 -1.98,-0.98 -2.97,-1.47 0.11,-4.92 0.82,-9.78 0.66,-14.71 -0.22,-11.67 2.24,-22.91 2.86,-34.45 1.13,-5.96 1.7,-11.98 2.99,-17.91 1.04,-6.7 2.65,-13.34 3.24,-20.1 1.01,-4.06 1.75,-7.84 5.19,-10.59 z" id="p24" />
      <path d="m 181.03,223.95 c 1.02,-0.15 2.05,-0.28 3.08,-0.38 l 1.21,1.04 c -1.29,2.09 -2.46,4.73 -4.81,5.72 0.23,-2.12 0.38,-4.25 0.52,-6.38 z" id="p25" />
      <path d="m 180.14,232.13 c 2.52,3.08 5.77,5.22 8.58,8 -2.53,3.75 -5.56,6.9 -7.55,11.01 -1.33,2.75 -2.84,4.99 -5.17,7 -0.12,-1.09 -0.22,-2.18 -0.31,-3.27 1.04,-7.6 2.88,-15.24 4.45,-22.74 z" id="p26" />
      <path d="m 79.78,232.7 c -1.5,8.55 -6.23,14.62 -9.25,22.63 -0.9,2.49 -1.94,4.87 -3.25,7.17 -0.8,-0.92 -1.59,-1.86 -2.36,-2.81 l 0.09,-0.68 c 2.21,-0.58 2.67,-1.96 3.11,-3.99 2.1,-4.76 4.65,-9.31 6.84,-14.04 1.34,-2.96 2.93,-5.63 4.82,-8.28 z" id="p27" />
      <path d="m 267.35,238.8 c 0.87,4.07 0.76,7 -0.19,11.03 -0.41,-3.7 -0.61,-7.35 0.19,-11.03 z" id="p28" />
      <path d="m 253.84,240.08 c 0.54,4.95 1.15,9.95 1.2,14.93 0.1,2.03 -0.99,3.39 -2.07,4.95 -1.55,0.95 -3.19,1.78 -4.79,2.63 0.02,-2.96 -0.08,-5.89 -0.77,-8.78 l -0.32,-1.58 c 1.72,-4.43 3.36,-8.68 6.75,-12.15 z" id="p29" />
      <path d="m 288.55,244.97 c 0.24,0.77 0.47,1.54 0.69,2.31 0.02,7.66 -0.93,15.19 -1.45,22.82 -0.94,-0.49 -1.9,-0.95 -2.87,-1.39 1.09,-7.94 2.61,-15.79 3.63,-23.74 z" id="p30" />
      <path d="m 182.19,252.9 c 2.13,3.72 3.6,7.76 5.87,11.42 2.7,-3.55 4.84,-6.13 9.23,-7.59 l -0.1,0.69 c -0.97,1.69 -1.74,3.56 -2.86,5.15 -2.15,1.86 -4.32,3.3 -5.59,5.98 -2.66,6.03 -4.45,13.22 -5.44,19.74 -0.76,-4.07 -1.99,-8 -4.13,-11.57 -0.32,5.63 0.99,10.93 1.45,16.49 -0.28,1.96 -0.78,3.85 -1.29,5.75 -2.51,2.33 -4.32,4.78 -5.19,8.15 -0.75,3.82 -1.81,7.54 -2.77,11.32 -0.75,2.3 1.49,4.99 -0.12,6.82 -1.9,2.65 -2.47,5.63 -3.21,8.74 -0.51,0.3 -1.02,0.6 -1.52,0.91 0.04,-0.94 0.07,-1.88 0.1,-2.82 l 1.3,0.3 c 0.37,-2.83 0.77,-5.67 1.08,-8.52 -0.84,0.42 -1.68,0.84 -2.51,1.26 -1.02,-1.5 -2.05,-2.51 -1.63,-4.47 1.33,-8.21 1.09,-16.41 1.5,-24.7 0.13,-5.39 1.22,-10.62 1.62,-16 0.19,-2.62 0.73,-4.95 1.63,-7.4 -0.62,11.54 -3.08,22.78 -2.86,34.45 0.16,4.93 -0.55,9.79 -0.66,14.71 0.99,0.49 1.98,0.98 2.97,1.47 2.38,-6.5 0.91,-12.63 1.9,-19.25 1.08,-8.5 0.93,-17.1 2.11,-25.6 0.46,-6.65 0.58,-13.23 2.09,-19.77 3.33,5.21 1.97,10.27 3.57,16.42 1.08,-5.02 -1.12,-9.04 -1.14,-13.99 0.13,-3.02 2.69,-5.9 4.6,-8.09 z" id="p31" />
      <path d="m 266.83,252.7 0.03,0.93 c -1.81,1.67 -3.63,3.38 -5.64,4.8 -4.29,1.06 -6.71,4.06 -9.81,6.95 -4.06,3.47 -4.04,9.62 -6.18,14.61 l -1.52,-1.61 c 1.77,-8.13 1.92,-16.44 3.7,-24.57 0.69,2.89 0.79,5.82 0.77,8.78 1.6,-0.85 3.24,-1.68 4.79,-2.63 4.58,-2.81 8.43,-6.09 13.86,-7.26 z" id="p32" />
      <path d="m 245.21,254.2 c -1.07,4.11 -3.84,6.45 -6.14,9.88 1.21,5.21 3.68,9.84 4.45,15.17 -0.44,2.15 -1.05,4.49 -0.93,6.68 0.91,1.48 2.48,2.58 3.71,3.78 2.01,1.81 3,4.03 4.66,6.17 -0.28,1.55 -0.51,3.1 -0.81,4.65 -4.3,13.03 -9,25.95 -13.87,38.78 -3.19,8.54 -5.88,17.23 -9.34,25.68 -4.6,11.36 -9.09,22.68 -12.61,34.43 1.03,-0.81 2.03,-1.41 2.49,-2.72 1.8,-4.35 2.73,-9.03 4.49,-13.42 4.74,-12.01 9.58,-23.98 13.77,-36.2 2.92,-8.63 6.43,-17.04 9.3,-25.68 0.91,-2.77 2.11,-5.28 3.63,-7.76 1.68,5.96 2.43,12.18 2.1,18.37 -0.2,2.57 0.18,4.98 0.76,7.47 -0.81,5.27 -2.44,10.46 -3.68,15.65 -2.11,8.55 -2.74,17.22 -4.39,25.87 -0.61,6.68 -1.39,13.28 -3.16,19.77 -1.83,4.39 -3.32,8.78 -4.5,13.39 1.13,-1.37 2.22,-2.76 3.32,-4.16 3.02,1.33 3.64,3.17 4.51,6.17 1,6.26 2.3,12.3 1.92,18.71 -4.3,10.21 -13.76,13.86 -22.34,19.65 -7.62,5.35 -15.8,9.8 -24.24,13.7 -4.57,2.22 -9.94,2.25 -11.33,8.07 3.1,-1.29 4.86,-4.11 8.04,-5.24 10.11,-3.84 19.63,-9.36 28.51,-15.51 5.44,-3.69 11.32,-6.58 16.86,-10.12 1.02,1.11 2.03,2.24 3.01,3.38 -3.25,2.29 -6.56,4.46 -9.74,6.85 -7.42,5.68 -16.6,9.47 -24.86,14.11 -8.37,4.65 -17.26,8.01 -25.92,12.03 -2.64,1.33 -6.19,0.7 -9.1,0.82 -4.22,0.14 -8.42,0.08 -12.64,-0.06 0.34,-3.19 0.22,-6.95 1.59,-9.87 4.94,-2.04 11.29,-0.36 16.6,-1.19 -5.28,-0.56 -10.78,-0.04 -16.15,-0.05 -0.1,-6.42 0.37,-12.77 1.41,-19.1 3.86,-1.39 7.91,-1.73 11.69,-3.3 3.88,-1.61 7.81,-3.18 11.61,-4.98 -6.01,1.41 -11.31,5.44 -17.35,5.65 -1.96,0.17 -3.86,1.18 -5.73,1.76 -0.13,-7.35 1.31,-14.38 1.81,-21.69 0.77,-0.64 1.54,-1.27 2.32,-1.91 4.41,1.33 8.67,2.91 13.2,3.81 3.81,0.86 7.81,1.33 11.53,2.54 1.47,0.4 1.98,1.54 2.88,2.63 -5.94,2.88 -12.09,3.89 -17.56,7.83 7.04,-2.65 14.48,-4.85 21.07,-8.49 -3.47,-1.91 -7.01,-3.42 -10.93,-4.14 -7.21,-1.36 -14.2,-2.79 -21.16,-5.22 -1.48,-1.75 0.55,-6.15 1.01,-8.34 1.16,-3.18 1.86,-6.2 2.02,-9.59 0.36,-6.43 2.15,-12.44 2.07,-18.89 -0.07,-10.31 -0.2,-20.59 0.52,-30.88 0.44,-5.94 0.9,-11.81 1.71,-17.71 0.41,-3.15 0.43,-6.3 0.58,-9.47 0.26,-5.89 1.89,-11.2 2.76,-17.13 0.66,-4.58 1.57,-9.09 2.51,-13.62 -0.71,0.4 -1.42,0.79 -2.13,1.19 0.1,-1.14 0.21,-2.29 0.31,-3.44 0.51,-1.9 1.01,-3.79 1.29,-5.75 0.28,-1.76 0.56,-3.53 0.84,-5.3 0.14,1.84 0.3,3.68 0.55,5.51 0.85,-1.63 1.12,-3.32 1.29,-5.13 0.99,-6.52 2.78,-13.71 5.44,-19.74 6.52,1.05 12.53,2.63 19.21,2.11 7.13,-0.34 13.49,-2.8 19.8,-5.93 6.27,-3.15 10.68,-8.15 17.46,-10.53 z m -5.42,49.03 c 2.6,-2.29 3.86,-4.32 4.97,-7.58 -2.9,2.17 -3.98,4.11 -4.97,7.58 z m -54.81,75.54 c 0.65,0.09 1.29,0.19 1.93,0.28 1.56,-5.4 5.52,-8.05 8.96,-12.16 4.95,-5.73 9.9,-11.49 14.6,-17.42 5.91,-8.16 11.87,-16.27 17.15,-24.86 3.91,-6.35 9.15,-12.73 11.5,-19.8 -4.39,5.16 -7.51,11.35 -11.43,16.89 -10.71,17.22 -22.82,33.49 -36.75,48.26 -2.43,2.78 -5.09,5.08 -5.96,8.81 z m 10.26,49.06 c 3.63,2.68 8.62,5.03 12.94,2.5 -3.84,-0.63 -7.52,-0.74 -11.02,-2.67 0.88,-6.11 5.18,-9.16 8.72,-13.76 2.65,-3.43 6.02,-6.07 8.46,-9.66 -5.82,2.84 -8.47,7.86 -12.85,12.26 -3.15,3.31 -5.14,6.89 -6.25,11.33 z m -4.45,16.3 c 2.68,-0.61 5.08,-1.49 7.49,-2.8 6.13,-3.27 12.29,-6.45 18.51,-9.54 4.42,-2.2 8.3,-5.12 12.5,-7.66 -4.56,10.98 -11.36,20.11 -19.13,29 -3.46,3.76 -8.4,3.41 -11.19,7.96 4.82,-1.56 9.31,-3.49 12.61,-7.51 5,-5.93 10.45,-12.13 14.03,-19.02 3.07,-5.85 6.66,-11.01 8.72,-17.37 -8.03,8.64 -18.41,13.14 -28.66,18.45 -5.25,2.77 -10.36,4.55 -14.88,8.49 z" id="p33" />
      <path d="m 266.86,253.63 c 0.34,4.48 0.39,8.95 0.13,13.43 -1.78,6.66 -0.8,12.88 -1,19.94 -0.19,7.88 0.45,15.88 -0.42,23.7 -0.51,3.99 -0.4,7.97 -0.54,11.98 -1.23,0.22 -2.47,0.43 -3.71,0.65 -0.71,-6.23 -0.85,-12.49 0.27,-18.68 0.75,-4.76 -0.6,-8.79 -0.73,-13.61 -0.25,-10.89 0.25,-21.73 0.36,-32.61 2.01,-1.42 3.83,-3.13 5.64,-4.8 z" id="p34" />
      <path d="m 68.12,255.02 c -0.44,2.03 -0.9,3.41 -3.11,3.99 0.15,-2.23 0.93,-3.34 3.11,-3.99 z" id="p35" />
      <path d="m 261.22,258.43 c -0.11,10.88 -0.61,21.72 -0.36,32.61 0.13,4.82 1.48,8.85 0.73,13.61 -1.12,6.19 -0.98,12.45 -0.27,18.68 l -1.33,0.25 c 0.4,-15.5 0.68,-31.2 -0.1,-46.69 -3.52,-0.68 -6.98,-1.26 -10.14,0.91 -2.54,2.84 -1.29,8.05 -1.25,11.55 -3.42,-2.48 -2.92,-5.62 -3.27,-9.36 2.14,-4.99 2.12,-11.14 6.18,-14.61 3.1,-2.89 5.52,-5.89 9.81,-6.95 z" id="p36" />
      <path d="m 64.92,259.69 c -0.23,1.13 -0.46,2.26 -0.7,3.38 -0.83,0.31 -1.67,0.61 -2.51,0.92 1.03,-1.47 2.14,-2.87 3.21,-4.3 z" id="p37" />
      <path d="m 114.27,263.81 c 1.4,4.06 1.25,7.94 1.68,12.19 0.37,5.71 1.02,11.52 0.75,17.24 -2.26,-2.43 -2.24,-6.12 -2.92,-9.31 -0.9,-3.93 0.73,-7.24 0.56,-11.14 -0.11,-3 -0.3,-5.98 -0.07,-8.98 z" id="p38" />
      <path d="m 284.92,268.71 c 0.97,0.44 1.93,0.9 2.87,1.39 -0.22,4.65 -0.82,9.26 -0.8,13.93 0.1,7.51 -2.35,14.44 -1.07,22.01 l 0.13,1.82 c 1.59,6.46 2.83,12.82 3.63,19.43 1.05,8.74 3.08,17.28 3.99,26.03 0.33,3.23 -0.26,6.33 -0.12,9.54 0.15,2.8 1.03,5.43 1.19,8.18 0.05,3.32 -1.55,6.18 -1.11,9.43 0.24,3.76 1.84,6.78 0.21,10.33 -2.64,6.25 -4.47,12.84 -7.79,18.73 -4.25,-7.45 -6.54,-15.44 -8.89,-23.57 -0.78,-3.17 -2.42,-4.7 -5.13,-6.33 0.54,-5.93 1.11,-11.86 1.68,-17.78 0.31,-1.68 0.21,-3.46 1.61,-4.63 3.08,-2.73 6.97,-4.73 10.67,-6.49 1.87,1.85 3.78,3.63 5.9,5.19 -0.71,-2.93 -2.84,-6.01 -5.96,-6.49 -3.89,0.6 -7.49,3.71 -10.98,5.48 -1.03,-6.64 0.2,-12.9 1.01,-19.45 0.12,-8.52 1.45,-16.91 1.67,-25.43 0.21,-6.79 1.33,-13.47 1.78,-20.24 0.32,-7.48 4.55,-13.59 5.51,-21.08 z" id="p39" />
      <path d="m 179.17,276.72 c 2.14,3.57 3.37,7.5 4.13,11.57 -0.17,1.81 -0.44,3.5 -1.29,5.13 -0.25,-1.83 -0.41,-3.67 -0.55,-5.51 -0.28,1.77 -0.56,3.54 -0.84,5.3 -0.46,-5.56 -1.77,-10.86 -1.45,-16.49 z" id="p40" />
      <path d="m 109.23,288.1 c 1.33,4.38 2.08,8.9 3.59,13.24 0.76,-0.15 1.53,-0.3 2.29,-0.45 -0.34,3.55 -1.06,6.99 -1.9,10.44 -0.69,2.8 -0.2,5.49 -0.45,8.28 -2.56,4.24 -8.19,6.65 -6.99,12.5 2.28,-0.53 4.26,-1.45 6.25,-2.65 -2.55,2.66 -4.11,5.22 -5.4,8.66 -2.21,1.15 -7.03,1.26 -7.84,3.76 2.77,4.48 6.9,7.26 10.83,10.61 0.04,0.47 0.07,0.94 0.1,1.41 -0.86,0.39 -1.72,0.77 -2.59,1.16 1.58,3.44 2.77,5.05 6.59,6.03 0.06,-1.79 0.11,-3.58 0.15,-5.37 0.47,0.31 0.95,0.62 1.42,0.93 1.92,9.23 1.86,18.38 -1.23,27.36 -3.17,-3.07 -5.59,-6.45 -5.77,-11.02 0.5,-1.69 1.39,-3.25 1.89,-4.93 -0.4,-3.76 -2.26,-7.52 -3.79,-10.94 -1.51,2.62 -3.07,5.2 -4.71,7.74 -3.97,-0.94 -7.12,-2.73 -10.3,-5.24 -2.85,-2.32 -6.15,-3.44 -9.51,-4.77 -4.14,-1.63 -7.17,-4.73 -11.31,-6.3 -2.53,-1.1 -4.98,-1.38 -6.95,-3.35 4.48,-2.05 9.28,-2.82 13.96,-0.95 -0.73,1.53 -1.53,3.12 -2.01,4.73 1.79,3.9 8.19,5.05 11.78,6.87 4.91,1.76 8.54,6 13.52,7.32 -0.19,-4.02 -0.7,-8.19 -1.98,-12.03 -0.81,-2.44 -2.58,-4.4 -3.58,-6.7 0.49,-3.84 3,-5.25 5.47,-7.74 0.35,-2.5 -0.35,-5.25 -0.77,-7.71 -9.54,0.03 -18.71,4.64 -28.19,1.96 -5.87,-2.09 -10.95,-6.9 -15.71,-10.81 6.24,1.86 9.41,7.49 15.41,9.58 3.6,1.36 7.34,1.84 11.15,1.14 6.18,-1.19 12.12,-1.28 17.95,-3.9 0.74,0.91 1.48,1.81 2.22,2.72 2.83,-3.46 5.94,-6.74 8.55,-10.38 1.32,-1.76 1.07,-4.2 1.12,-6.3 -0.22,-8.28 -2.43,-16.65 -3.26,-24.9 z" id="p41" />
      <path d="m 244.76,295.65 c -1.11,3.26 -2.37,5.29 -4.97,7.58 0.99,-3.47 2.07,-5.41 4.97,-7.58 z" id="p42" />
      <path d="m 250.96,295.88 c 3.38,1.78 3.4,4.66 3.31,8.08 -1.19,11.16 0.85,22.41 -0.22,33.63 -0.59,5.47 -0.38,10.92 -0.27,16.41 0.01,10.38 0.02,20.91 0.94,31.25 0.16,1.94 1.54,1.96 2.98,2.74 -0.99,1.47 -2.51,3.19 -2.6,5 -0.48,13.61 3.83,29.1 0.33,42.3 -1.04,5.16 -1.23,10.41 -2.48,15.55 -1.13,4.67 -1.95,9.35 -2.08,14.16 -0.26,8.13 -1.03,16.89 0.43,24.88 -0.98,1.67 -2.09,3.32 -2.86,5.1 -0.45,7.06 -1.03,14.32 -0.19,21.37 l 0.68,-0.64 c 0.95,-0.89 1.9,-1.76 2.8,-2.69 0.67,-0.79 1.1,-1.78 1.3,-2.98 0.8,-2.75 1.63,-5.51 2.67,-8.18 1.7,-4.23 3.78,-7.77 6.94,-11.07 5.44,11.95 11.14,23.9 15.7,36.21 h -85.55 c -1.62,-2.18 -3.18,-4.17 -5.62,-5.49 -0.57,1.82 -1.04,3.66 -1.58,5.49 h -35.87 c 1.26,-2.14 2.82,-4.47 3.44,-6.88 0.69,-2.67 0.6,-5.66 0.67,-8.41 0.93,-5.1 3.26,-9.71 3.95,-14.89 1.28,-5.69 0.16,-11.29 1.05,-16.99 1.33,-8.98 2.96,-17.92 4.34,-26.89 0.61,-7.29 0.99,-14.6 1.41,-21.89 0.53,-5.06 1.76,-10.01 2.12,-15.1 0.21,4.62 0.23,9.23 -0.08,13.84 -0.5,7.31 -1.94,14.34 -1.81,21.69 1.87,-0.58 3.77,-1.59 5.73,-1.76 6.04,-0.21 11.34,-4.24 17.35,-5.65 -3.8,1.8 -7.73,3.37 -11.61,4.98 -3.78,1.57 -7.83,1.91 -11.69,3.3 -1.04,6.33 -1.51,12.68 -1.41,19.1 5.37,0.01 10.87,-0.51 16.15,0.05 -5.31,0.83 -11.66,-0.85 -16.6,1.19 -1.37,2.92 -1.25,6.68 -1.59,9.87 4.22,0.14 8.42,0.2 12.64,0.06 2.91,-0.12 6.46,0.51 9.1,-0.82 8.66,-4.02 17.55,-7.38 25.92,-12.03 8.26,-4.64 17.44,-8.43 24.86,-14.11 3.18,-2.39 6.49,-4.56 9.74,-6.85 1.65,-1.14 3.42,-2.23 4.92,-3.57 1.2,-4.12 -0.6,-7.46 -3.43,-10.36 0.38,-6.41 -0.92,-12.45 -1.92,-18.71 -0.08,-5.63 -0.67,-10.37 -3.33,-15.4 1.77,-6.49 2.55,-13.09 3.16,-19.77 1.65,-8.65 2.28,-17.32 4.39,-25.87 1.24,-5.19 2.87,-10.38 3.68,-15.65 0.69,-3.36 0.45,-6.7 0.69,-10.09 0.79,-7.42 -0.71,-14.71 0.62,-22.14 0.53,-2.84 -0.4,-4.49 -2.03,-6.72 0.3,-1.55 0.53,-3.1 0.81,-4.65 z m -75.72,188.32 0.01,0.55 0.55,-0.02 -0.01,-0.54 z m 11,32.06 c 0.53,0.53 0.53,0.53 0,0 z" id="p43" />
      <path d="m 179.33,298.96 c -0.1,1.15 -0.21,2.3 -0.31,3.44 0.71,-0.4 1.42,-0.79 2.13,-1.19 -0.94,4.53 -1.85,9.04 -2.51,13.62 -0.87,5.93 -2.5,11.24 -2.76,17.13 -0.15,3.17 -0.17,6.32 -0.58,9.47 l -0.51,-1.2 c -0.57,1.35 -1.13,2.7 -1.69,4.04 -0.26,-4.91 -0.16,-9.81 0.59,-14.68 1.27,-7.73 2,-15.59 2.5,-23.41 -0.68,0.31 -1.37,0.62 -2.05,0.93 0.87,-3.37 2.68,-5.82 5.19,-8.15 z" id="p44" />
      <path d="m 250.15,300.53 c 1.63,2.23 2.56,3.88 2.03,6.72 -1.33,7.43 0.17,14.72 -0.62,22.14 -0.24,3.39 0,6.73 -0.69,10.09 -0.58,-2.49 -0.96,-4.9 -0.76,-7.47 0.33,-6.19 -0.42,-12.41 -2.1,-18.37 -1.52,2.48 -2.72,4.99 -3.63,7.76 -2.87,8.64 -6.38,17.05 -9.3,25.68 -4.19,12.22 -9.03,24.19 -13.77,36.2 -1.76,4.39 -2.69,9.07 -4.49,13.42 -0.46,1.31 -1.46,1.91 -2.49,2.72 3.52,-11.75 8.01,-23.07 12.61,-34.43 3.46,-8.45 6.15,-17.14 9.34,-25.68 4.87,-12.83 9.57,-25.75 13.87,-38.78 z" id="p45" />
      <path d="m 239.12,304.81 c -2.35,7.07 -7.59,13.45 -11.5,19.8 -5.28,8.59 -11.24,16.7 -17.15,24.86 -4.7,5.93 -9.65,11.69 -14.6,17.42 -3.44,4.11 -7.4,6.76 -8.96,12.16 -0.64,-0.09 -1.28,-0.19 -1.93,-0.28 0.87,-3.73 3.53,-6.03 5.96,-8.81 13.93,-14.77 26.04,-31.04 36.75,-48.26 3.92,-5.54 7.04,-11.73 11.43,-16.89 z" id="p46" />
      <path d="m 285.92,306.04 c 1.73,0.68 1.77,1.29 0.13,1.82 z" id="p47" />
      <path d="m 169,323.86 c -0.31,2.85 -0.71,5.69 -1.08,8.52 l -1.3,-0.3 c 0.08,-2.32 0.04,-4.64 -0.13,-6.96 0.83,-0.42 1.67,-0.84 2.51,-1.26 z" id="p48" />
      <path d="m 64.06,332.7 c 10.16,0.93 20.65,3.89 30.68,2.66 0.46,0.96 0.92,1.93 1.38,2.9 -6.32,0.12 -12.66,-1.68 -18.94,-2.4 -7.13,-1.42 -13.19,-1.71 -20.33,-0.25 2.17,-1.09 4.73,-2.94 7.21,-2.91 z" id="p49" />
      <path d="m 56.53,338.38 c 8,0.47 14.23,-1.63 21.38,1.11 -8.37,2.06 -16.49,2.36 -24.51,5.73 -3.72,1.57 -6.38,4.08 -9.67,6.35 2.89,-6.28 8.9,-6.27 14.42,-9.32 -0.55,-1.28 -1.13,-2.56 -1.62,-3.87 z" id="p50" />
      <path d="m 151.33,347.01 c 0.71,1.99 0.46,3.88 0.45,5.96 -0.16,5.35 0.06,10.68 0.03,16.03 0.03,6.8 -0.3,13.38 0.29,20.15 5.73,-6.76 4.37,-15.98 5.51,-24.24 0.41,6.57 -0.74,13.11 -1.17,19.81 -1.06,9.03 -2.09,18.07 -3.04,27.12 -0.88,9.26 -0.67,18.49 -0.81,27.75 -1.09,-4.98 -0.46,-10.48 -0.41,-15.56 0.33,-6.38 -0.66,-12.62 -0.71,-18.98 -0.13,-2.52 0,-5.3 -0.78,-7.72 -0.92,-1.05 -2.03,-1.98 -3.09,-2.91 1.18,-1.4 2.69,-2.82 3.37,-4.53 0.64,-4.21 0.17,-8.63 0.24,-12.89 0.03,-9.99 -0.06,-20.01 0.12,-29.99 z" id="p51" />
      <path d="m 172.31,350.04 0.66,0.4 c 0.26,2.89 0.32,5.8 0.62,8.7 -0.72,10.29 -0.59,20.57 -0.52,30.88 0.08,6.45 -1.71,12.46 -2.07,18.89 -0.16,3.39 -0.86,6.41 -2.02,9.59 -1.15,-3.24 -1.26,-6.46 -1.1,-9.85 2.21,-7.1 2.01,-13.83 2.77,-21.17 0.66,-6.67 0.57,-13.33 0.33,-20.02 0.16,-5.84 0.53,-11.64 1.33,-17.42 z" id="p52" />
      <path d="m 170.98,367.46 c 0.24,6.69 0.33,13.35 -0.33,20.02 -0.76,7.34 -0.56,14.07 -2.77,21.17 -2.32,-5.48 0.1,-9.88 -0.11,-15.62 -0.11,-7.36 0.35,-14.69 1.15,-22.01 0.03,-1.74 0.93,-2.41 2.06,-3.56 z" id="p53" />
      <path d="m 118.03,374.75 c 1.39,0.81 3.32,1.83 3.92,3.43 -0.62,8.79 -5.01,16.68 -9.44,24.08 -0.93,-4.67 1.79,-7.73 2.23,-12.25 0.61,-5.34 0.74,-10.36 3.29,-15.26 z" id="p54" />
      <path d="m 272.03,379.63 c 2.71,1.63 4.35,3.16 5.13,6.33 0.07,0.8 0.14,1.6 0.19,2.39 -0.92,-0.17 -1.84,-0.33 -2.76,-0.5 l 0.32,1.19 c -0.48,-1 -0.98,-1.99 -1.49,-2.97 -0.92,5.94 -1.01,11.77 -0.62,17.75 l -1.63,0.11 c -0.62,-8.12 -0.44,-16.26 0.86,-24.3 z" id="p55" />
      <path d="m 277.16,385.96 c 2.35,8.13 4.64,16.12 8.89,23.57 -2.05,3.61 -1.68,7.23 -2.01,11.21 -0.48,1.39 -0.93,2.78 -1.25,4.22 l -0.92,-1.46 c -1.01,-11.76 -3.14,-23.26 -6.96,-34.46 l -0.32,-1.19 c 0.92,0.17 1.84,0.33 2.76,0.5 -0.05,-0.79 -0.12,-1.59 -0.19,-2.39 z" id="p56" />
      <path d="m 257.09,391.75 c 1.57,3.33 2.28,6.83 2.59,10.48 0.49,5.61 1.16,11.36 0.94,16.99 -1.79,-3.63 -1.58,-7.32 -1.77,-11.26 -0.16,-5.47 -1.7,-10.72 -1.76,-16.21 z" id="p57" />
      <path d="m 239.64,400.77 c 2.66,5.03 3.25,9.77 3.33,15.4 -0.87,-3 -1.49,-4.84 -4.51,-6.17 -1.1,1.4 -2.19,2.79 -3.32,4.16 1.18,-4.61 2.67,-9 4.5,-13.39 z" id="p58" />
      <path d="m 214.34,404.24 c -2.44,3.59 -5.81,6.23 -8.46,9.66 -3.54,4.6 -7.84,7.65 -8.72,13.76 3.5,1.93 7.18,2.04 11.02,2.67 -4.32,2.53 -9.31,0.18 -12.94,-2.5 1.11,-4.44 3.1,-8.02 6.25,-11.33 4.38,-4.4 7.03,-9.42 12.85,-12.26 z" id="p59" />
      <path d="m 272.19,407.95 c 1.63,2.69 0.82,7.02 0.89,10.08 -0.83,9.22 -1.1,19.77 -5.11,28.19 0.09,-6.31 2.78,-11.94 3.16,-18.2 0.67,-6.67 0.44,-13.4 1.06,-20.07 z" id="p60" />
      <path d="m 234.33,417.19 c -2.06,6.36 -5.65,11.52 -8.72,17.37 -3.58,6.89 -9.03,13.09 -14.03,19.02 -3.3,4.02 -7.79,5.95 -12.61,7.51 2.79,-4.55 7.73,-4.2 11.19,-7.96 7.77,-8.89 14.57,-18.02 19.13,-29 -4.2,2.54 -8.08,5.46 -12.5,7.66 -6.22,3.09 -12.38,6.27 -18.51,9.54 -2.41,1.31 -4.81,2.19 -7.49,2.8 4.52,-3.94 9.63,-5.72 14.88,-8.49 10.25,-5.31 20.63,-9.81 28.66,-18.45 z" id="p61" />
      <path d="m 69.52,418.99 c 2.62,3.74 2,9.63 4.06,13.48 3.25,4.77 8.51,7.05 13.52,9.41 3.19,1.38 5.06,3.86 7.28,6.38 0.92,-0.09 1.84,-0.18 2.76,-0.27 1.44,3.69 3.08,7.31 4.73,10.91 1.23,-1.8 2.51,-3.56 3.87,-5.27 0.32,3.77 -0.41,7.23 -1.41,10.83 -1.25,-1.74 -2.46,-3.51 -3.67,-5.27 0.28,4.47 -1.84,7.37 -4.16,10.93 -4.3,-6.13 -5.05,-12.78 -6.94,-19.8 -0.7,-2.32 -1.31,-4.87 -3.63,-6.11 -3.86,-2.1 -7.96,-3.66 -11.73,-5.96 3.22,7.9 4.85,15.58 10.05,22.59 6.91,9.28 11.49,20.15 19.3,28.43 -0.15,0.92 -0.31,1.83 -0.47,2.75 -6.57,-4.81 -7.99,-11.86 -13.04,-17.78 l -0.19,1.82 c -0.5,-1.34 -1.07,-2.65 -1.63,-3.97 -0.13,1.32 -0.24,2.63 -0.33,3.95 -1.46,-3.39 -3.18,-6.68 -4.91,-9.95 0.39,-0.99 0.11,-1.73 -0.84,-2.23 -1.19,-2.71 -2.51,-5.34 -4.03,-7.88 0.36,-0.99 0.08,-1.74 -0.86,-2.24 -2.23,-6.22 -5.1,-11.79 -6.61,-18.32 -1.32,-5.58 -2.26,-11.27 -2.94,-16.96 0.63,0.13 1.24,0.3 1.82,0.53 z" id="p62" />
      <path d="m 107.91,419.02 c -0.87,8.52 -3.16,17.9 -1.9,26.4 1.63,-2.53 2.18,-5.32 2.8,-8.2 0.69,11.05 -2.59,21.65 -2.39,32.75 -0.79,-1.31 -1.58,-2.62 -2.39,-3.93 l 0.3,-1.58 c 1,-3.6 1.73,-7.06 1.41,-10.83 -1.36,1.71 -2.64,3.47 -3.87,5.27 -1.65,-3.6 -3.29,-7.22 -4.73,-10.91 -0.95,-3.58 -1.24,-7.1 0.16,-10.61 2.47,-6.6 6.28,-12.82 10.61,-18.36 z m -2.15,27.52 c -1.29,1.3 -1.4,4.27 -0.51,5.78 1.63,-0.21 1.07,-4.67 0.51,-5.78 z" id="p63" />
      <path d="m 284.04,420.74 c 0.98,0.56 2.34,1.51 1.48,2.76 -0.74,0.68 -1.65,1.17 -2.73,1.46 0.32,-1.44 0.77,-2.83 1.25,-4.22 z" id="p64" />
      <path d="m 281.87,423.5 0.92,1.46 c -3.45,12.98 -9,25.44 -12.46,38.42 -1.48,-5 -1.48,-8.3 -0.03,-13.27 0.51,1.3 1.01,2.59 1.51,3.89 0.3,-1.87 0.61,-3.74 0.92,-5.6 -0.5,-0.51 -0.99,-1.01 -1.48,-1.51 1.74,-4.33 4.47,-8.09 6.13,-12.46 1.41,-3.69 2.73,-7.39 4.49,-10.93 z" id="p65" />
      <path d="m 244.89,434.88 c 2.83,2.9 4.63,6.24 3.43,10.36 -1.5,1.34 -3.27,2.43 -4.92,3.57 -0.98,-1.14 -1.99,-2.27 -3.01,-3.38 -5.54,3.54 -11.42,6.43 -16.86,10.12 -8.88,6.15 -18.4,11.67 -28.51,15.51 -3.18,1.13 -4.94,3.95 -8.04,5.24 1.39,-5.82 6.76,-5.85 11.33,-8.07 8.44,-3.9 16.62,-8.35 24.24,-13.7 8.58,-5.79 18.04,-9.44 22.34,-19.65 z" id="p66" />
      <path d="m 105.76,446.54 c 0.56,1.11 1.12,5.57 -0.51,5.78 -0.89,-1.51 -0.78,-4.48 0.51,-5.78 z" id="p67" />
      <path d="m 77.25,453.74 c 0.94,0.5 1.22,1.25 0.86,2.24 -0.99,-0.47 -1.28,-1.21 -0.86,-2.24 z" id="p68" />
      <path d="m 151.04,455.85 c -0.8,5.33 -2.64,10.2 -6.19,14.31 1.31,-5.07 3.46,-9.84 6.19,-14.31 z" id="p69" />
      <path d="m 100.66,459.19 c 1.21,1.76 2.42,3.53 3.67,5.27 l -0.3,1.58 c -0.73,5.69 -0.39,11.14 -0.28,16.84 -2.39,-4.28 -4.6,-8.62 -7.25,-12.76 2.32,-3.56 4.44,-6.46 4.16,-10.93 z" id="p70" />
      <path d="m 82.14,463.86 c 0.95,0.5 1.23,1.24 0.84,2.23 -0.97,-0.48 -1.25,-1.22 -0.84,-2.23 z" id="p71" />
      <path d="m 88.22,472.09 c 0.56,1.32 1.13,2.63 1.63,3.97 1.36,5.74 4.89,10.06 7.28,15.28 l -1,0.72 c -0.71,0.43 -1.41,0.85 -2.12,1.28 -0.3,9.55 2.02,19.32 3.89,28.64 -0.23,1.06 0.15,1.76 1.15,2.11 -0.07,0.97 -0.14,1.94 -0.21,2.91 h -2.71 c -2.46,-11.76 -5.04,-24.02 -5.24,-36.04 -0.24,-5.15 -1.52,-10.01 -3,-14.92 0.09,-1.32 0.2,-2.63 0.33,-3.95 z" id="p72" />
      <path d="m 175.24,484.2 0.55,-0.01 0.01,0.54 -0.55,0.02 z" id="p73" />
      <path d="m 135.89,488.12 c -0.68,2.27 -1.5,4.5 -2.13,6.79 -1.06,2.52 1.19,5.57 1.98,7.99 -1.23,0.31 -2.28,0.77 -3.57,0.42 -3.43,-0.68 -5.57,-4.36 -8.38,-6.26 -3.28,-0.6 -6.78,-0.28 -10.09,-1.05 -3.64,-0.85 -6.88,-2.58 -10.06,-4.48 3.18,1.07 6.22,2.48 9.37,3.62 3.88,1.43 7.67,0.83 11.56,1.55 1.99,1.05 3.69,2.71 5.46,4.08 2.41,-4.04 3.67,-8.52 5.86,-12.66 z" id="p74" />
      <path d="m 251.3,489.88 c 0.79,4.71 0.17,9.22 -0.34,13.91 1.58,-0.64 3.16,-1.29 4.74,-1.93 -1.04,2.67 -1.87,5.43 -2.67,8.18 -0.95,0.04 -2.3,0.03 -3,0.75 -0.46,1.02 0.97,1.82 1.7,2.23 -0.9,0.93 -1.85,1.8 -2.8,2.69 0.59,-6.83 -0.2,-14.09 -0.49,-20.73 0.77,-1.78 1.88,-3.43 2.86,-5.1 z" id="p75" />
      <path d="m 96.13,492.06 c 2.74,3.15 5.08,6.58 7.29,10.12 l 0.35,0.45 c 2.72,2.77 5.94,4.98 8.54,7.9 -0.55,5.5 -0.3,10.98 0.15,16.47 H 98.84 c 0.07,-0.97 0.14,-1.94 0.21,-2.91 0.27,-1.07 -0.11,-1.77 -1.15,-2.11 -1.87,-9.32 -4.19,-19.09 -3.89,-28.64 0.71,-0.43 1.41,-0.85 2.12,-1.28 z" id="p76" />
      <path d="m 248.44,494.98 c 0.29,6.64 1.08,13.9 0.49,20.73 l -0.68,0.64 c -0.84,-7.05 -0.26,-14.31 0.19,-21.37 z" id="p77" />
      <path d="m 103.42,502.18 0.35,0.45 z" id="p78" />
      <path d="m 136.83,502.98 c 3.78,0.98 7.1,2.8 10.58,4.49 1.06,-1.26 2.12,-2.53 3.21,-3.77 -0.19,2.39 -0.61,4.57 -1.44,6.83 -4.42,-2 -8.6,-4.45 -12.35,-7.55 z" id="p79" />
      <path d="m 114.57,510.72 0.34,0.05 c 7.6,2.82 15.33,5.51 22.59,9.13 1.47,2.9 4.85,4.3 6.66,7.1 h -31.7 c -0.45,-5.49 -0.7,-10.97 -0.15,-16.47 0.76,0.05 1.51,0.12 2.26,0.19 z" id="p80" />
      <path d="m 250.03,510.79 c 0.7,-0.72 2.05,-0.71 3,-0.75 -0.2,1.2 -0.63,2.19 -1.3,2.98 -0.73,-0.41 -2.16,-1.21 -1.7,-2.23 z" id="p81" />
      <path d="m 153.83,511.71 c -0.07,2.75 0.02,5.74 -0.67,8.41 -0.62,2.41 -2.18,4.74 -3.44,6.88 h -5.56 c -1.81,-2.8 -5.19,-4.2 -6.66,-7.1 3.22,1.42 6.41,2.89 9.59,4.36 2.13,-4.39 3.35,-8.86 6.74,-12.55 z" id="p82" />
      <path d="m 186.24,516.26 c 0.53,0.53 0.53,0.53 0,0 z" id="p83" />
      <path d="m 97.9,521.98 c 1.04,0.34 1.42,1.04 1.15,2.11 -1,-0.35 -1.38,-1.05 -1.15,-2.11 z" id="p84" />
      <path d="m 187.17,521.51 c 2.44,1.32 4,3.31 5.62,5.49 h -7.2 c 0.54,-1.83 1.01,-3.67 1.58,-5.49 z" id="p85" />
   </defs>
   <g id="g436">
      <use fill="#394143" xlink:href="#p1" id="use266" x="0" y="0" width="100%" height="100%" transform="matrix(1.3129825,0,0,1.3129825,-36.313082,-64.395214)" />
      <use fill="#282a2e" xlink:href="#p2" id="use268" x="0" y="0" width="100%" height="100%" transform="matrix(1.3129825,0,0,1.3129825,-36.313082,-64.395214)" />
      <use fill="#8a8b90" xlink:href="#p3" id="use270" x="0" y="0" width="100%" height="100%" style="fill:#282a2e;fill-opacity:1" transform="matrix(1.3129825,0,0,1.3129825,-36.313082,-64.395214)" />
      <use fill="#85888d" xlink:href="#p4" id="use272" x="0" y="0" width="100%" height="100%" style="fill:#394143;fill-opacity:1" transform="matrix(1.3129825,0,0,1.3129825,-36.313082,-64.395214)" />
      <use fill="#040608" xlink:href="#p5" id="use274" x="0" y="0" width="100%" height="100%" transform="matrix(1.3129825,0,0,1.3129825,-36.313082,-64.395214)" />
      <use fill="#16171c" xlink:href="#p6" id="use276" x="0" y="0" width="100%" height="100%" transform="matrix(1.3129825,0,0,1.3129825,-36.313082,-64.395214)" />
      <use fill="#060706" xlink:href="#p7" id="use278" x="0" y="0" width="100%" height="100%" transform="matrix(1.3129825,0,0,1.3129825,-36.313082,-64.395214)" />
      <use fill="#605f5e" xlink:href="#p8" id="use280" x="0" y="0" width="100%" height="100%" transform="matrix(1.3129825,0,0,1.3129825,-36.313082,-64.395214)" />
      <use fill="#776862" xlink:href="#p9" id="use282" x="0" y="0" width="100%" height="100%" transform="matrix(1.3129825,0,0,1.3129825,-36.313082,-64.395214)" />
      <use fill="#010101" xlink:href="#p10" id="use284" x="0" y="0" width="100%" height="100%" transform="matrix(1.3129825,0,0,1.3129825,-36.313082,-64.395214)" />
      <use fill="#05060a" xlink:href="#p11" id="use286" x="0" y="0" width="100%" height="100%" transform="matrix(1.3129825,0,0,1.3129825,-36.313082,-64.395214)" />
      <use fill="#725e5a" xlink:href="#p12" id="use288" x="0" y="0" width="100%" height="100%" transform="matrix(1.3129825,0,0,1.3129825,-36.313082,-64.395214)" />
      <use fill="#2e2521" xlink:href="#p13" id="use290" x="0" y="0" width="100%" height="100%" transform="matrix(1.3129825,0,0,1.3129825,-36.313082,-64.395214)" />
      <use fill="#a1877c" xlink:href="#p14" id="use292" x="0" y="0" width="100%" height="100%" transform="matrix(1.3129825,0,0,1.3129825,-36.313082,-64.395214)" />
      <use fill="#a5827a" xlink:href="#p15" id="use294" x="0" y="0" width="100%" height="100%" transform="matrix(1.3129825,0,0,1.3129825,-36.313082,-64.395214)" />
      <use fill="#ecd0be" xlink:href="#p16" id="use296" x="0" y="0" width="100%" height="100%" transform="matrix(1.3129825,0,0,1.3129825,-36.313082,-64.395214)" />
      <use fill="#a5827a" xlink:href="#p17" id="use298" x="0" y="0" width="100%" height="100%" transform="matrix(1.3129825,0,0,1.3129825,-36.313082,-64.395214)" />
      <use fill="#b4a194" xlink:href="#p18" id="use300" x="0" y="0" width="100%" height="100%" transform="matrix(1.3129825,0,0,1.3129825,-36.313082,-64.395214)" />
      <use fill="#1c1f1d" xlink:href="#p19" id="use302" x="0" y="0" width="100%" height="100%" transform="matrix(1.3129825,0,0,1.3129825,-36.313082,-64.395214)" />
      <use fill="#3a3f42" xlink:href="#p20" id="use304" x="0" y="0" width="100%" height="100%" transform="matrix(1.3129825,0,0,1.3129825,-36.313082,-64.395214)" />
      <use fill="#92797a" xlink:href="#p21" id="use306" x="0" y="0" width="100%" height="100%" transform="matrix(1.3129825,0,0,1.3129825,-36.313082,-64.395214)" />
      <use fill="#030502" xlink:href="#p22" id="use308" x="0" y="0" width="100%" height="100%" transform="matrix(1.3129825,0,0,1.3129825,-36.313082,-64.395214)" />
      <use fill="#8e8a83" xlink:href="#p23" id="use310" x="0" y="0" width="100%" height="100%" transform="matrix(1.3129825,0,0,1.3129825,-36.313082,-64.395214)" />
      <use fill="#918e81" xlink:href="#p24" id="use312" x="0" y="0" width="100%" height="100%" transform="matrix(1.3129825,0,0,1.3129825,-36.313082,-64.395214)" />
      <use fill="#22211d" xlink:href="#p25" id="use314" x="0" y="0" width="100%" height="100%" transform="matrix(1.3129825,0,0,1.3129825,-36.313082,-64.395214)" />
      <use fill="#040403" xlink:href="#p26" id="use316" x="0" y="0" width="100%" height="100%" transform="matrix(1.3129825,0,0,1.3129825,-36.313082,-64.395214)" />
      <use fill="#2d3034" xlink:href="#p27" id="use318" x="0" y="0" width="100%" height="100%" style="stroke:none" transform="matrix(1.3129825,0,0,1.3129825,-36.313082,-64.395214)" />
      <use fill="#828281" xlink:href="#p28" id="use320" x="0" y="0" width="100%" height="100%" transform="matrix(1.3129825,0,0,1.3129825,-36.313082,-64.395214)" />
      <use fill="#3c3f40" xlink:href="#p29" id="use322" x="0" y="0" width="100%" height="100%" transform="matrix(1.3129825,0,0,1.3129825,-36.313082,-64.395214)" />
      <use fill="#16191d" xlink:href="#p30" id="use324" x="0" y="0" width="100%" height="100%" transform="matrix(1.3129825,0,0,1.3129825,-36.313082,-64.395214)" />
      <use fill="#030202" xlink:href="#p31" id="use326" x="0" y="0" width="100%" height="100%" transform="matrix(1.3129825,0,0,1.3129825,-36.313082,-64.395214)" />
      <use fill="#2b2a29" xlink:href="#p32" id="use328" x="0" y="0" width="100%" height="100%" transform="matrix(1.3129825,0,0,1.3129825,-36.313082,-64.395214)" />
      <use fill="#d6c7bb" xlink:href="#p33" id="use330" x="0" y="0" width="100%" height="100%" transform="matrix(1.3129825,0,0,1.3129825,-36.313082,-64.395214)" />
      <use fill="#95907c" xlink:href="#p34" id="use332" x="0" y="0" width="100%" height="100%" transform="matrix(1.3129825,0,0,1.3129825,-36.313082,-64.395214)" />
      <use fill="#717578" xlink:href="#p35" id="use334" x="0" y="0" width="100%" height="100%" style="fill:#2d3034;fill-opacity:1;stroke:none" transform="matrix(1.3129825,0,0,1.3129825,-36.313082,-64.395214)" />
      <use fill="#020101" xlink:href="#p36" id="use336" x="0" y="0" width="100%" height="100%" transform="matrix(1.3129825,0,0,1.3129825,-36.313082,-64.395214)" />
      <use fill="#888a8e" xlink:href="#p37" id="use338" x="0" y="0" width="100%" height="100%" style="fill:#394143;fill-opacity:1" transform="matrix(1.3129825,0,0,1.3129825,-36.313082,-64.395214)" />
      <use fill="#171a1d" xlink:href="#p38" id="use340" x="0" y="0" width="100%" height="100%" transform="matrix(1.3129825,0,0,1.3129825,-36.313082,-64.395214)" />
      <use fill="#010102" xlink:href="#p39" id="use342" x="0" y="0" width="100%" height="100%" transform="matrix(1.3129825,0,0,1.3129825,-36.313082,-64.395214)" />
      <use fill="#282421" xlink:href="#p40" id="use344" x="0" y="0" width="100%" height="100%" transform="matrix(1.3129825,0,0,1.3129825,-36.313082,-64.395214)" />
      <use fill="#010305" xlink:href="#p41" id="use346" x="0" y="0" width="100%" height="100%" transform="matrix(1.3129825,0,0,1.3129825,-36.313082,-64.395214)" />
      <use fill="#9f8c7e" xlink:href="#p42" id="use348" x="0" y="0" width="100%" height="100%" transform="matrix(1.3129825,0,0,1.3129825,-36.313082,-64.395214)" />
      <use fill="#010101" xlink:href="#p43" id="use350" x="0" y="0" width="100%" height="100%" transform="matrix(1.3129825,0,0,1.3129825,-36.313082,-64.395214)" />
      <use fill="#49473c" xlink:href="#p44" id="use352" x="0" y="0" width="100%" height="100%" transform="matrix(1.3129825,0,0,1.3129825,-36.313082,-64.395214)" />
      <use fill="#887a77" xlink:href="#p45" id="use354" x="0" y="0" width="100%" height="100%" transform="matrix(1.3129825,0,0,1.3129825,-36.313082,-64.395214)" />
      <use fill="#8d7b70" xlink:href="#p46" id="use356" x="0" y="0" width="100%" height="100%" transform="matrix(1.3129825,0,0,1.3129825,-36.313082,-64.395214)" />
      <use fill="#7e7d82" xlink:href="#p47" id="use358" x="0" y="0" width="100%" height="100%" transform="matrix(1.3129825,0,0,1.3129825,-36.313082,-64.395214)" />
      <use fill="#7c7e79" xlink:href="#p48" id="use360" x="0" y="0" width="100%" height="100%" transform="matrix(1.3129825,0,0,1.3129825,-36.313082,-64.395214)" />
      <use fill="#27282c" xlink:href="#p49" id="use362" x="0" y="0" width="100%" height="100%" transform="matrix(1.3129825,0,0,1.3129825,-36.313082,-64.395214)" />
      <use fill="#000305" xlink:href="#p50" id="use364" x="0" y="0" width="100%" height="100%" transform="matrix(1.3129825,0,0,1.3129825,-36.313082,-64.395214)" />
      <use fill="#030709" xlink:href="#p51" id="use366" x="0" y="0" width="100%" height="100%" transform="matrix(1.3129825,0,0,1.3129825,-36.313082,-64.395214)" />
      <use fill="#8f877d" xlink:href="#p52" id="use368" x="0" y="0" width="100%" height="100%" transform="matrix(1.3129825,0,0,1.3129825,-36.313082,-64.395214)" />
      <use fill="#2e2d2d" xlink:href="#p53" id="use370" x="0" y="0" width="100%" height="100%" transform="matrix(1.3129825,0,0,1.3129825,-36.313082,-64.395214)" />
      <use fill="#000305" xlink:href="#p54" id="use372" x="0" y="0" width="100%" height="100%" transform="matrix(1.3129825,0,0,1.3129825,-36.313082,-64.395214)" />
      <use fill="#2e3032" xlink:href="#p55" id="use374" x="0" y="0" width="100%" height="100%" transform="matrix(1.3129825,0,0,1.3129825,-36.313082,-64.395214)" />
      <use fill="#0a0c10" xlink:href="#p56" id="use376" x="0" y="0" width="100%" height="100%" transform="matrix(1.3129825,0,0,1.3129825,-36.313082,-64.395214)" />
      <use fill="#252a2d" xlink:href="#p57" id="use378" x="0" y="0" width="100%" height="100%" transform="matrix(1.3129825,0,0,1.3129825,-36.313082,-64.395214)" />
      <use fill="#8a7c76" xlink:href="#p58" id="use380" x="0" y="0" width="100%" height="100%" transform="matrix(1.3129825,0,0,1.3129825,-36.313082,-64.395214)" />
      <use fill="#917e74" xlink:href="#p59" id="use382" x="0" y="0" width="100%" height="100%" transform="matrix(1.3129825,0,0,1.3129825,-36.313082,-64.395214)" />
      <use fill="#22272a" xlink:href="#p60" id="use384" x="0" y="0" width="100%" height="100%" transform="matrix(1.3129825,0,0,1.3129825,-36.313082,-64.395214)" />
      <use fill="#907f74" xlink:href="#p61" id="use386" x="0" y="0" width="100%" height="100%" transform="matrix(1.3129825,0,0,1.3129825,-36.313082,-64.395214)" />
      <use fill="#333638" xlink:href="#p62" id="use388" x="0" y="0" width="100%" height="100%" transform="matrix(1.3129825,0,0,1.3129825,-36.313082,-64.395214)" />
      <use fill="#010303" xlink:href="#p63" id="use390" x="0" y="0" width="100%" height="100%" transform="matrix(1.3129825,0,0,1.3129825,-36.313082,-64.395214)" />
      <use fill="#97989d" xlink:href="#p64" id="use392" x="0" y="0" width="100%" height="100%" style="fill:#0a0c10;fill-opacity:1" transform="matrix(1.3129825,0,0,1.3129825,-36.313082,-64.395214)" />
      <use fill="#26282c" xlink:href="#p65" id="use394" x="0" y="0" width="100%" height="100%" transform="matrix(1.3129825,0,0,1.3129825,-36.313082,-64.395214)" />
      <use fill="#8d7a78" xlink:href="#p66" id="use396" x="0" y="0" width="100%" height="100%" transform="matrix(1.3129825,0,0,1.3129825,-36.313082,-64.395214)" />
      <use fill="#3a3e3f" xlink:href="#p67" id="use398" x="0" y="0" width="100%" height="100%" transform="matrix(1.3129825,0,0,1.3129825,-36.313082,-64.395214)" />
      <use fill="#8e8f93" xlink:href="#p68" id="use400" x="0" y="0" width="100%" height="100%" style="fill:#333638;fill-opacity:1" transform="matrix(1.3129825,0,0,1.3129825,-36.313082,-64.395214)" />
      <use fill="#232629" xlink:href="#p69" id="use402" x="0" y="0" width="100%" height="100%" transform="matrix(1.3129825,0,0,1.3129825,-36.313082,-64.395214)" />
      <use fill="#010408" xlink:href="#p70" id="use404" x="0" y="0" width="100%" height="100%" transform="matrix(1.3129825,0,0,1.3129825,-36.313082,-64.395214)" />
      <use fill="#7a7a82" xlink:href="#p71" id="use406" x="0" y="0" width="100%" height="100%" style="fill:#333638;fill-opacity:1" transform="matrix(1.3129825,0,0,1.3129825,-36.313082,-64.395214)" />
      <use fill="#0f1013" xlink:href="#p72" id="use408" x="0" y="0" width="100%" height="100%" transform="matrix(1.3129825,0,0,1.3129825,-36.313082,-64.395214)" />
      <use fill="#afb1ac" xlink:href="#p73" id="use410" x="0" y="0" width="100%" height="100%" transform="matrix(1.3129825,0,0,1.3129825,-36.313082,-64.395214)" />
      <use fill="#010407" xlink:href="#p74" id="use412" x="0" y="0" width="100%" height="100%" transform="matrix(1.3129825,0,0,1.3129825,-36.313082,-64.395214)" />
      <use fill="#242521" xlink:href="#p75" id="use414" x="0" y="0" width="100%" height="100%" transform="matrix(1.3129825,0,0,1.3129825,-36.313082,-64.395214)" />
      <use fill="#6b6c67" xlink:href="#p77" id="use418" x="0" y="0" width="100%" height="100%" transform="matrix(1.3129825,0,0,1.3129825,-36.313082,-64.395214)" />
      <use fill="#cacbcd" xlink:href="#p78" id="use420" x="0" y="0" width="100%" height="100%" transform="matrix(1.3129825,0,0,1.3129825,-36.313082,-64.395214)" />
      <use fill="#272c2f" xlink:href="#p79" id="use422" x="0" y="0" width="100%" height="100%" transform="matrix(1.3129825,0,0,1.3129825,-36.313082,-64.395214)" />
      <use fill="#010101" xlink:href="#p80" id="use424" x="0" y="0" width="100%" height="100%" transform="matrix(1.3129825,0,0,1.3129825,-36.313082,-64.395214)" />
      <use fill="#6b6b68" xlink:href="#p81" id="use426" x="0" y="0" width="100%" height="100%" transform="matrix(1.3129825,0,0,1.3129825,-36.313082,-64.395214)" />
      <use fill="#191a18" xlink:href="#p82" id="use428" x="0" y="0" width="100%" height="100%" transform="matrix(1.3129825,0,0,1.3129825,-36.313082,-64.395214)" />
      <use fill="#7d7d7b" xlink:href="#p83" id="use430" x="0" y="0" width="100%" height="100%" transform="matrix(1.3129825,0,0,1.3129825,-36.313082,-64.395214)" />
      <use fill="#727272" xlink:href="#p84" id="use432" x="0" y="0" width="100%" height="100%" transform="matrix(1.3129825,0,0,1.3129825,-36.313082,-64.395214)" />
   </g>
</svg>